<?xml version="1.0" encoding="iso-8859-1"?>
<!-- Generator: Adobe Illustrator 19.0.0, SVG Export Plug-In . SVG Version: 6.00 Build 0)  -->
<svg version="1.1" id="Capa_1" xmlns="http://www.w3.org/2000/svg" xmlns:xlink="http://www.w3.org/1999/xlink" x="0px" y="0px"
	 viewBox="0 0 512 512" style="enable-background:new 0 0 512 512;" xml:space="preserve">
<circle style="fill:#3DE000;" cx="256" cy="256" r="256"/>
<path style="fill:#00CC00;" d="M512,256c0-16.196-1.521-32.036-4.397-47.397L432,133l-63.839,44.739L323.934,133l-73.827,127.17
	L123.091,133L80,379l128.603,128.603C223.964,510.479,239.804,512,256,512C397.385,512,512,397.385,512,256z"/>
<path style="fill:#FFFFFF;" d="M388.909,133c0.003,0.167,0.013,0.332,0.013,0.5c0,17.949-14.551,32.5-32.5,32.5
	s-32.5-14.551-32.5-32.5c0-0.168,0.01-0.333,0.013-0.5H188.066c0.003,0.167,0.013,0.332,0.013,0.5c0,17.949-14.551,32.5-32.5,32.5
	s-32.5-14.551-32.5-32.5c0-0.168,0.01-0.333,0.013-0.5H80v246h352V133H388.909z"/>
<path style="fill:#EBEBF0;" d="M432,133h-43.091c0.003,0.167,0.013,0.332,0.013,0.5c0,17.949-14.551,32.5-32.5,32.5
	s-32.5-14.551-32.5-32.5c0-0.168,0.01-0.333,0.013-0.5h-68.363v246H432V133z"/>
<rect x="118.49" y="231.12" style="fill:#5F6C75;" width="137.51" height="20.751"/>
<rect x="186.52" y="231.12" style="fill:#4B5568;" width="69.48" height="20.751"/>
<rect x="118.49" y="272.12" style="fill:#D2D2D7;" width="137.51" height="20.751"/>
<rect x="186.52" y="272.12" style="fill:#C8BEB9;" width="69.48" height="20.751"/>
<rect x="118.49" y="313.12" style="fill:#D2D2D7;" width="137.51" height="20.751"/>
<rect x="186.52" y="313.12" style="fill:#C8BEB9;" width="69.48" height="20.751"/>
<circle style="fill:#FA5D0F;" cx="341.87" cy="236.38" r="31.615"/>
<path style="fill:#D84C0F;" d="M373.486,236.384c0-17.458-14.149-31.61-31.605-31.615v63.23
	C359.337,267.993,373.486,253.841,373.486,236.384z"/>
<path style="fill:#FA5D0F;" d="M273,344.852c0-38.037,30.835-68.871,68.871-68.871s68.871,30.835,68.871,68.871H273z"/>
<path style="fill:#D84C0F;" d="M341.881,275.98v68.871h68.862C410.743,306.818,379.913,275.986,341.881,275.98z"/>
<g>
</g>
<g>
</g>
<g>
</g>
<g>
</g>
<g>
</g>
<g>
</g>
<g>
</g>
<g>
</g>
<g>
</g>
<g>
</g>
<g>
</g>
<g>
</g>
<g>
</g>
<g>
</g>
<g>
</g>
</svg>
