<svg height="434pt" viewBox="-57 0 434 434" width="434pt" xmlns="http://www.w3.org/2000/svg"><path d="m320 40v354c.007812 22.09375-17.90625 40.007812-40 40h-240c-22.09375.007812-40.0078125-17.90625-40-40v-354c-.0078125-22.09375 17.90625-40.0078125 40-40h240c22.09375-.0078125 40.007812 17.90625 40 40zm0 0" fill="#e48e66"/><path d="m158.300781 0h-118.300781c-22.09375-.0078125-40.0078125 17.90625-40 40v354c-.0078125 22.09375 17.90625 40.007812 40 40h118.300781zm0 0" fill="#d18162"/><path d="m229.398438 332.300781h-138.796876c0-41.601562 31.097657-72.199219 69.398438-72.199219s69.398438 30.5 69.398438 72.199219zm0 0" fill="#f8ec7d"/><path d="m160 137.699219c23.042969-.054688 41.761719 18.589843 41.800781 41.632812.035157 23.042969-18.625 41.75-41.667969 41.769531-23.042968.015626-41.734374-18.660156-41.734374-41.703124-.023438-23 18.597656-41.667969 41.601562-41.699219zm0 0" fill="#f8ec7d"/><path d="m198.398438 57.101562h-80c-5.519532 0-10-4.480468-10-10 0-5.523437 4.480468-10 10-10h80c5.523437 0 10 4.476563 10 10 0 5.519532-4.476563 10-10 10zm0 0" fill="#63316d"/></svg>