<?xml version="1.0" standalone="no"?>
<!DOCTYPE svg PUBLIC "-//W3C//DTD SVG 20010904//EN"
 "http://www.w3.org/TR/2001/REC-SVG-20010904/DTD/svg10.dtd">
<svg version="1.0" xmlns="http://www.w3.org/2000/svg"
 width="7086.000000pt" height="7086.000000pt" viewBox="0 0 7086.000000 7086.000000"
 preserveAspectRatio="xMidYMid meet">
<metadata>
Created by potrace 1.13, written by Peter Selinger 2001-2015
</metadata>
<g transform="translate(0.000000,7086.000000) scale(0.100000,-0.100000)"
fill="#000000" stroke="none">
<path d="M35355 57820 c-1171 -57 -2211 -225 -3290 -531 -854 -242 -1657 -556
-2475 -966 -2495 -1250 -4577 -3222 -5977 -5663 -164 -287 -446 -832 -567
-1100 -425 -936 -715 -1788 -945 -2770 -72 -310 -155 -723 -149 -742 3 -9
3076 -13 3086 -4 1 2 20 82 42 177 244 1089 695 2208 1293 3204 947 1580 2267
2898 3852 3847 526 316 1180 633 1740 846 203 77 509 184 640 223 340 103 726
206 945 253 1556 331 3006 350 4530 60 773 -147 1595 -401 2320 -717 241 -105
277 -122 560 -263 645 -323 1190 -661 1760 -1093 407 -308 705 -567 1094 -950
661 -653 1223 -1361 1683 -2121 73 -121 255 -438 267 -467 1 -1 756 -3 1679
-5 1364 -3 1677 -1 1677 9 0 44 -409 906 -590 1243 -1121 2089 -2710 3842
-4676 5157 -656 439 -1376 836 -2114 1165 -384 172 -823 342 -1245 484 -1188
397 -2356 625 -3650 710 -277 18 -1222 27 -1490 14z m1285 -762 c25 -3 101 -8
170 -10 69 -3 141 -8 160 -11 19 -4 67 -6 107 -6 40 0 91 -5 115 -12 24 -6 73
-11 110 -10 36 1 86 -3 110 -10 23 -6 64 -11 89 -10 26 1 66 -3 90 -10 24 -6
63 -11 86 -10 23 1 52 -3 65 -10 13 -7 44 -11 70 -10 26 1 58 -4 70 -10 13 -7
44 -11 70 -10 26 1 58 -4 70 -10 13 -7 40 -12 60 -10 21 1 48 -4 60 -10 13 -7
40 -12 60 -10 21 1 48 -4 60 -10 13 -7 40 -12 60 -10 21 1 48 -4 60 -10 13 -7
36 -12 51 -11 15 1 38 -3 50 -10 12 -6 35 -11 50 -10 15 1 38 -3 50 -10 12 -6
35 -11 50 -10 15 1 38 -3 50 -10 12 -6 35 -11 50 -10 15 1 38 -3 50 -10 12 -6
34 -11 50 -10 15 1 40 -4 56 -12 16 -9 31 -13 34 -9 4 3 21 0 39 -8 18 -7 44
-12 59 -11 14 2 31 -3 37 -11 7 -8 23 -12 37 -9 14 2 32 -2 41 -9 9 -7 29 -12
44 -11 14 2 32 -3 39 -11 6 -8 21 -13 31 -10 11 3 35 -1 53 -8 17 -8 39 -12
48 -11 9 2 21 -4 28 -12 7 -8 18 -13 26 -10 7 3 27 -1 43 -10 16 -8 32 -13 35
-9 4 3 21 0 39 -8 18 -7 40 -12 49 -11 9 2 21 -4 28 -12 7 -8 18 -13 26 -10 7
3 26 -1 42 -9 15 -8 34 -12 40 -10 7 3 20 -2 28 -11 9 -8 21 -13 28 -11 7 3
50 -9 97 -26 47 -17 93 -31 104 -30 10 0 25 -6 33 -14 7 -8 20 -12 28 -9 8 3
21 -1 30 -9 8 -8 23 -13 33 -10 10 2 24 -2 31 -10 6 -8 20 -13 30 -10 9 2 23
-2 30 -11 7 -8 19 -12 26 -9 8 3 21 -2 30 -11 9 -8 22 -13 30 -10 8 3 22 -1
31 -10 8 -9 20 -13 25 -10 6 3 29 -3 52 -13 23 -11 76 -30 117 -43 41 -14 81
-30 88 -37 8 -7 18 -10 23 -7 6 3 30 -4 54 -15 25 -12 51 -21 59 -21 8 0 16
-3 18 -8 2 -4 35 -17 73 -30 39 -13 89 -32 112 -43 24 -10 46 -19 51 -19 5 0
27 -9 50 -20 22 -11 46 -20 52 -20 10 0 51 -20 60 -30 3 -3 25 -12 50 -20 25
-8 71 -27 103 -42 31 -16 61 -28 65 -28 15 0 62 -25 62 -32 0 -5 9 -8 20 -8
11 0 20 -3 20 -8 0 -4 19 -13 43 -20 48 -15 170 -73 175 -84 2 -5 12 -8 23 -8
10 0 19 -4 19 -10 0 -5 7 -10 15 -10 19 0 419 -199 423 -211 2 -5 12 -9 23 -9
10 0 19 -4 19 -10 0 -5 9 -10 20 -10 11 0 20 -4 20 -10 0 -5 6 -10 13 -10 24
0 167 -79 167 -92 0 -5 9 -8 20 -8 11 0 20 -4 20 -10 0 -5 8 -10 18 -11 9 0
31 -9 47 -20 17 -10 49 -29 73 -41 23 -12 42 -26 42 -30 0 -4 7 -8 15 -8 16 0
77 -39 83 -52 2 -5 10 -8 18 -8 15 0 76 -39 82 -52 2 -5 10 -8 18 -8 15 0 76
-39 82 -52 2 -5 12 -8 23 -8 10 0 24 -9 31 -20 7 -11 18 -20 24 -20 20 0 75
-32 81 -46 3 -8 12 -14 19 -14 15 0 76 -39 82 -52 2 -5 12 -8 23 -8 10 0 24
-9 31 -20 7 -11 21 -20 30 -20 10 0 23 -9 30 -20 7 -11 21 -20 30 -20 10 0 23
-9 30 -20 7 -11 21 -20 30 -20 10 0 23 -9 30 -20 7 -11 21 -20 30 -20 10 0 23
-9 30 -20 7 -11 19 -20 27 -20 12 0 50 -28 108 -80 12 -11 29 -20 38 -20 8 0
20 -9 27 -20 7 -11 19 -20 27 -20 12 0 50 -28 108 -80 12 -11 27 -20 34 -20 6
0 28 -14 48 -30 43 -37 46 -39 91 -70 19 -14 47 -37 63 -52 15 -16 33 -28 41
-28 8 0 26 -13 39 -30 14 -16 31 -30 38 -30 6 0 31 -17 54 -37 68 -60 126
-107 144 -117 9 -5 33 -26 54 -48 21 -21 44 -38 51 -38 7 0 34 -22 60 -50 26
-27 53 -50 60 -50 7 0 34 -22 60 -50 26 -27 52 -50 59 -50 7 0 43 -32 81 -70
37 -39 74 -70 80 -70 7 0 56 -45 111 -100 54 -55 103 -100 109 -100 14 0 796
-783 796 -797 0 -6 41 -50 90 -99 50 -48 90 -93 90 -100 0 -7 27 -38 60 -70
33 -31 60 -63 60 -70 0 -7 27 -38 60 -70 33 -31 60 -62 60 -69 0 -7 18 -32 40
-56 113 -124 140 -157 140 -167 0 -5 13 -25 30 -44 83 -93 110 -126 110 -137
0 -7 14 -24 30 -38 17 -13 30 -31 30 -40 0 -8 14 -26 30 -40 17 -13 30 -31 30
-40 0 -8 14 -26 30 -40 17 -13 30 -31 30 -39 0 -8 9 -25 20 -37 52 -58 80 -96
80 -108 0 -8 9 -20 20 -27 11 -7 20 -19 20 -28 0 -9 8 -24 18 -33 24 -22 142
-200 142 -214 0 -7 9 -18 20 -25 11 -7 20 -20 20 -30 0 -9 9 -23 20 -30 11 -7
20 -21 20 -32 0 -11 5 -20 10 -20 6 0 10 -9 10 -19 0 -10 6 -21 14 -24 14 -6
66 -102 66 -124 0 -7 3 -13 8 -13 12 0 92 -143 92 -166 0 -6 14 -38 30 -70 17
-32 29 -63 26 -70 -3 -7 2 -18 10 -25 9 -7 13 -21 11 -31 -3 -12 0 -18 10 -18
11 0 14 -8 11 -30 -3 -18 1 -35 9 -41 8 -7 13 -34 13 -70 0 -33 4 -59 10 -59
6 0 10 -11 10 -25 0 -14 -4 -25 -10 -25 -5 0 -10 -22 -10 -50 0 -27 -4 -50
-10 -50 -5 0 -10 -7 -10 -15 0 -23 -109 -128 -126 -121 -8 3 -14 -1 -14 -10 0
-11 -6 -15 -20 -11 -14 3 -20 0 -20 -10 0 -10 -6 -14 -20 -10 -10 3 -25 -2
-31 -10 -7 -8 -25 -13 -39 -11 -15 1 -35 -3 -43 -10 -10 -9 -37 -13 -72 -11
-33 2 -60 -2 -67 -9 -16 -16 -182 -16 -211 0 -12 6 -48 10 -81 9 -39 -1 -62 2
-67 10 -4 8 -24 12 -48 11 -22 -2 -53 4 -68 11 -16 8 -34 12 -41 10 -7 -3 -21
2 -31 11 -10 9 -20 13 -24 10 -10 -11 -275 126 -296 152 -10 13 -24 24 -31 24
-16 0 -340 323 -340 339 0 6 -18 27 -40 47 -22 20 -40 43 -40 50 0 8 -18 30
-40 50 -22 20 -40 42 -40 49 0 7 -15 29 -32 49 -68 73 -108 124 -108 134 0 5
-13 25 -30 44 -82 92 -110 126 -110 137 0 6 -18 27 -40 47 -22 20 -40 43 -40
50 0 8 -18 30 -40 50 -22 20 -40 42 -40 50 0 7 -22 34 -50 60 -27 26 -50 53
-50 60 0 7 -22 34 -50 60 -27 26 -50 52 -50 59 0 7 -31 44 -70 81 -38 37 -70
73 -70 79 0 7 -49 61 -110 120 -60 60 -110 114 -110 120 0 13 -511 525 -524
525 -5 0 -56 46 -113 102 -57 56 -112 107 -122 113 -18 9 -82 66 -218 193 -31
28 -61 52 -68 52 -7 0 -33 23 -59 50 -26 28 -52 50 -58 50 -10 0 -45 28 -136
110 -19 17 -40 30 -47 30 -7 0 -29 18 -49 40 -20 22 -42 40 -50 40 -8 0 -26
14 -39 30 -14 17 -32 30 -40 30 -9 0 -27 14 -40 30 -14 17 -31 30 -38 30 -10
0 -50 30 -106 80 -12 11 -29 20 -36 20 -8 0 -21 7 -28 16 -7 9 -44 36 -81 60
-37 25 -68 49 -68 54 0 6 -9 10 -20 10 -11 0 -25 9 -32 20 -7 11 -21 20 -30
20 -10 0 -23 9 -30 20 -7 11 -21 20 -30 20 -10 0 -23 9 -30 20 -7 11 -21 20
-30 20 -10 0 -23 9 -30 20 -7 11 -21 20 -30 20 -10 0 -23 9 -30 20 -7 11 -19
20 -26 20 -14 0 -75 40 -80 53 -2 4 -12 7 -23 7 -10 0 -24 9 -31 20 -7 11 -19
20 -26 20 -14 0 -75 40 -80 53 -2 4 -10 7 -18 7 -15 0 -76 39 -82 53 -2 4 -9
7 -16 7 -21 0 -77 31 -83 46 -3 8 -13 14 -22 15 -9 0 -29 9 -46 20 -16 10 -40
24 -52 30 -13 7 -23 16 -23 21 0 4 -6 8 -12 8 -22 0 -159 72 -165 86 -3 8 -14
14 -24 14 -10 0 -19 5 -19 10 0 6 -9 10 -20 10 -11 0 -20 5 -20 10 0 6 -9 10
-20 10 -11 0 -20 5 -20 10 0 6 -6 10 -12 10 -17 0 -422 202 -426 212 -2 5 -12
8 -23 8 -10 0 -19 5 -19 10 0 6 -7 10 -15 10 -22 0 -198 80 -203 93 -2 4 -10
7 -18 7 -7 0 -33 9 -56 19 -97 44 -138 61 -146 61 -4 0 -34 13 -67 30 -33 16
-65 30 -71 30 -5 0 -29 9 -52 20 -22 11 -45 20 -50 20 -4 0 -27 9 -50 20 -22
11 -47 20 -55 20 -8 0 -20 6 -26 14 -7 8 -21 12 -31 9 -11 -3 -20 -1 -20 4 0
5 -23 16 -50 23 -28 8 -55 19 -61 26 -6 7 -17 10 -24 7 -8 -3 -21 2 -30 11 -9
8 -22 13 -30 9 -9 -3 -21 -1 -28 5 -17 14 -427 153 -451 153 -10 0 -25 6 -32
14 -8 7 -22 11 -32 8 -10 -2 -24 2 -31 11 -7 8 -18 13 -26 10 -7 -3 -26 1 -42
9 -15 8 -34 12 -41 10 -7 -3 -21 2 -31 11 -10 9 -20 13 -24 10 -3 -4 -21 -1
-39 7 -18 7 -40 12 -49 11 -9 -2 -21 4 -28 12 -7 8 -18 13 -26 10 -7 -3 -26 1
-42 9 -15 8 -33 12 -40 10 -6 -2 -24 2 -40 10 -15 8 -33 12 -40 10 -6 -2 -24
2 -40 10 -15 8 -34 12 -41 10 -7 -3 -20 1 -29 8 -9 8 -26 12 -39 11 -12 -2
-35 3 -51 11 -15 8 -33 12 -40 10 -6 -2 -25 3 -41 11 -16 8 -32 13 -35 9 -4
-3 -21 0 -39 8 -18 7 -43 12 -55 11 -12 -2 -32 2 -45 9 -13 7 -37 12 -54 11
-17 -2 -36 4 -43 12 -6 8 -21 12 -31 9 -11 -3 -35 1 -52 8 -18 7 -47 12 -64
10 -18 -1 -43 3 -56 10 -13 7 -36 12 -51 11 -15 -1 -38 3 -50 10 -12 6 -39 11
-59 9 -21 -1 -48 4 -60 10 -13 7 -40 12 -60 10 -21 -1 -48 4 -60 10 -13 7 -40
12 -60 10 -21 -1 -48 4 -60 10 -13 7 -44 11 -70 10 -26 -1 -58 3 -70 10 -12 7
-48 11 -80 10 -32 -1 -67 3 -80 10 -12 7 -52 11 -90 10 -37 -1 -77 3 -90 10
-12 7 -52 11 -88 10 -36 -1 -81 3 -100 9 -19 6 -79 11 -132 10 -54 0 -107 4
-118 10 -12 6 -86 12 -168 14 -81 1 -163 5 -182 8 -46 8 -944 8 -990 0 -19 -3
-106 -7 -192 -8 -90 -2 -166 -8 -178 -14 -12 -6 -63 -10 -119 -9 -59 1 -107
-3 -120 -10 -12 -7 -55 -11 -99 -10 -45 1 -88 -3 -100 -10 -13 -7 -53 -11 -90
-10 -38 1 -78 -3 -90 -10 -12 -7 -44 -11 -70 -10 -26 1 -57 -3 -70 -10 -12 -6
-44 -11 -70 -10 -26 1 -57 -3 -70 -10 -12 -6 -44 -11 -70 -10 -26 1 -57 -3
-70 -10 -12 -6 -39 -11 -60 -10 -20 2 -47 -3 -60 -10 -12 -6 -39 -11 -60 -10
-20 2 -47 -3 -59 -9 -12 -7 -35 -11 -50 -10 -15 1 -38 -4 -50 -10 -12 -7 -35
-11 -50 -10 -15 1 -38 -4 -50 -10 -12 -7 -35 -11 -50 -10 -15 1 -38 -4 -51
-11 -13 -7 -33 -11 -45 -9 -12 1 -37 -4 -55 -11 -18 -8 -35 -11 -39 -8 -3 4
-19 -1 -35 -9 -16 -8 -39 -14 -51 -12 -12 1 -37 -4 -55 -11 -18 -8 -35 -11
-39 -8 -3 4 -19 -1 -35 -9 -16 -8 -35 -13 -41 -11 -7 2 -25 -2 -40 -10 -16 -8
-34 -12 -40 -10 -7 2 -25 -2 -40 -10 -16 -8 -34 -12 -40 -10 -7 2 -25 -2 -40
-10 -16 -8 -35 -12 -42 -9 -8 3 -19 -2 -26 -10 -7 -8 -19 -14 -28 -12 -9 1
-31 -4 -49 -11 -18 -8 -35 -11 -39 -8 -3 4 -19 -1 -35 -9 -16 -9 -36 -13 -43
-10 -8 3 -19 -2 -26 -10 -7 -9 -21 -13 -31 -11 -10 3 -25 -1 -33 -10 -8 -8
-21 -13 -28 -10 -6 2 -25 -2 -40 -10 -16 -8 -35 -12 -42 -9 -8 3 -19 -2 -26
-10 -7 -9 -21 -13 -30 -11 -10 3 -24 -2 -30 -10 -7 -8 -21 -12 -31 -10 -10 3
-25 -2 -33 -10 -9 -8 -22 -12 -30 -9 -8 3 -21 -2 -30 -10 -9 -9 -22 -13 -30
-10 -8 3 -21 -2 -30 -10 -9 -9 -22 -13 -30 -10 -8 3 -21 -2 -30 -10 -9 -9 -22
-13 -30 -10 -8 3 -21 -2 -30 -10 -9 -9 -22 -13 -30 -10 -8 3 -21 -2 -30 -10
-8 -9 -21 -14 -28 -11 -6 2 -19 -1 -27 -7 -8 -7 -49 -23 -90 -36 -41 -14 -78
-28 -81 -34 -4 -5 -14 -6 -22 -3 -9 3 -20 0 -26 -7 -6 -7 -33 -18 -61 -26 -27
-7 -50 -16 -50 -20 0 -4 -22 -13 -50 -20 -27 -7 -50 -16 -50 -20 0 -4 -22 -13
-50 -20 -27 -7 -50 -17 -50 -22 0 -4 -8 -8 -17 -8 -10 0 -45 -14 -78 -30 -33
-17 -63 -30 -68 -30 -4 0 -36 -13 -70 -29 -34 -16 -80 -35 -102 -43 -22 -7
-42 -15 -45 -18 -5 -5 -96 -49 -183 -88 -26 -12 -54 -22 -62 -22 -8 0 -15 -4
-15 -10 0 -5 -9 -10 -20 -10 -11 0 -20 -4 -20 -10 0 -5 -9 -10 -20 -10 -11 0
-20 -4 -20 -10 0 -5 -9 -10 -20 -10 -11 0 -20 -4 -20 -10 0 -5 -9 -10 -20 -10
-11 0 -20 -4 -20 -10 0 -5 -9 -10 -20 -10 -11 0 -20 -4 -20 -10 0 -5 -9 -10
-20 -10 -11 0 -20 -4 -20 -10 0 -5 -9 -10 -20 -10 -11 0 -20 -4 -20 -10 0 -5
-9 -10 -20 -10 -11 0 -20 -4 -20 -10 0 -5 -9 -10 -20 -10 -11 0 -20 -4 -20
-10 0 -5 -9 -10 -20 -10 -11 0 -20 -3 -20 -7 0 -14 -182 -113 -207 -113 -7 0
-13 -4 -13 -10 0 -5 -9 -10 -20 -10 -11 0 -20 -4 -20 -8 0 -5 -10 -14 -22 -21
-13 -6 -36 -20 -53 -30 -16 -11 -37 -20 -46 -20 -9 -1 -19 -7 -22 -15 -6 -15
-62 -46 -83 -46 -7 0 -14 -3 -16 -7 -6 -14 -67 -53 -82 -53 -8 0 -16 -3 -18
-7 -6 -14 -67 -53 -82 -53 -8 0 -16 -3 -18 -7 -5 -13 -66 -53 -80 -53 -7 0
-19 -9 -26 -20 -7 -11 -21 -20 -31 -20 -11 0 -21 -4 -23 -8 -1 -4 -82 -60
-179 -125 -97 -64 -182 -123 -189 -132 -7 -8 -20 -15 -29 -15 -9 0 -22 -9 -29
-20 -7 -11 -19 -20 -28 -20 -9 0 -24 -8 -33 -17 -9 -10 -32 -29 -51 -43 -45
-31 -48 -33 -91 -70 -20 -16 -42 -30 -48 -30 -7 0 -24 -13 -38 -30 -13 -16
-31 -30 -38 -30 -7 0 -28 -13 -47 -30 -93 -83 -126 -110 -137 -110 -7 0 -24
-13 -38 -30 -13 -16 -31 -30 -38 -30 -7 0 -31 -17 -52 -38 -21 -22 -45 -43
-54 -48 -21 -12 -102 -82 -193 -166 -40 -38 -77 -68 -83 -68 -5 0 -41 -31 -79
-69 -38 -37 -77 -72 -87 -78 -9 -5 -82 -73 -160 -151 -79 -78 -148 -142 -153
-142 -15 0 -204 -192 -204 -207 0 -7 -9 -13 -19 -13 -12 0 -23 -9 -27 -22 -4
-13 -64 -81 -133 -151 -69 -71 -130 -136 -135 -145 -8 -15 -73 -88 -216 -241
-27 -30 -50 -59 -50 -65 0 -6 -22 -33 -50 -59 -27 -26 -50 -53 -50 -59 0 -6
-23 -36 -50 -67 -101 -112 -110 -123 -110 -133 0 -6 -18 -32 -41 -57 -50 -57
-52 -60 -90 -116 -17 -26 -40 -52 -50 -58 -11 -7 -19 -18 -19 -26 0 -12 -28
-50 -80 -108 -11 -12 -20 -27 -20 -34 0 -11 -32 -55 -77 -105 -13 -14 -23 -31
-23 -39 0 -8 -9 -20 -20 -27 -11 -7 -20 -20 -20 -29 0 -9 -7 -22 -15 -29 -9
-7 -41 -52 -73 -99 -31 -47 -60 -87 -64 -89 -5 -2 -8 -12 -8 -23 0 -10 -9 -24
-20 -31 -11 -7 -20 -21 -20 -30 0 -10 -9 -23 -20 -30 -11 -7 -20 -21 -20 -30
0 -10 -9 -23 -20 -30 -11 -7 -20 -19 -20 -26 0 -14 -40 -75 -52 -80 -5 -2 -8
-10 -8 -18 0 -15 -39 -76 -52 -82 -5 -2 -8 -10 -8 -18 0 -15 -39 -76 -52 -82
-5 -2 -8 -11 -9 -20 0 -9 -9 -30 -20 -47 -10 -16 -24 -40 -30 -52 -7 -13 -16
-23 -21 -23 -4 0 -8 -8 -9 -17 0 -10 -9 -31 -20 -48 -10 -16 -24 -40 -30 -52
-7 -13 -16 -23 -21 -23 -4 0 -8 -9 -8 -20 0 -11 -4 -20 -10 -20 -5 0 -10 -8
-11 -17 0 -10 -14 -40 -29 -68 -16 -27 -48 -86 -71 -130 -23 -44 -45 -81 -50
-83 -5 -2 -9 -12 -9 -23 0 -10 -4 -19 -10 -19 -5 0 -10 -9 -10 -20 0 -11 -4
-20 -10 -20 -5 0 -10 -9 -10 -20 0 -11 -4 -20 -10 -20 -5 0 -10 -9 -10 -20 0
-11 -4 -20 -10 -20 -5 0 -10 -7 -10 -15 0 -8 -23 -63 -52 -122 -28 -60 -61
-128 -72 -153 -12 -25 -24 -46 -28 -48 -5 -2 -8 -12 -8 -23 0 -10 -4 -19 -8
-19 -4 0 -14 -21 -22 -47 -13 -45 -48 -121 -60 -133 -3 -3 -12 -25 -20 -50 -8
-25 -27 -71 -42 -103 -16 -31 -28 -61 -28 -65 0 -5 -13 -36 -30 -70 -16 -34
-30 -66 -30 -70 0 -5 -9 -27 -20 -50 -11 -22 -20 -46 -20 -52 0 -10 -20 -50
-30 -60 -3 -3 -11 -23 -18 -45 -14 -42 -34 -87 -42 -95 -3 -3 -11 -23 -18 -45
-17 -50 -55 -129 -64 -133 -5 -2 -8 -12 -8 -23 0 -10 -4 -19 -10 -19 -5 0 -10
-6 -10 -14 0 -17 -42 -100 -52 -104 -5 -2 -8 -12 -8 -23 0 -10 -9 -24 -20 -31
-11 -7 -20 -21 -20 -30 0 -10 -4 -18 -10 -18 -5 0 -10 -7 -10 -16 0 -9 -13
-30 -30 -46 -16 -15 -30 -33 -30 -39 0 -19 -162 -179 -181 -179 -9 0 -19 -6
-22 -14 -6 -16 -195 -111 -204 -102 -4 3 -14 -1 -24 -10 -11 -10 -28 -15 -44
-12 -14 3 -30 -1 -37 -9 -8 -10 -32 -14 -90 -12 -48 1 -83 -2 -90 -9 -8 -8
-15 -9 -25 -1 -8 7 -55 11 -123 10 -86 -2 -110 1 -110 11 0 10 -11 12 -40 10
-31 -3 -40 -1 -40 11 0 10 -7 13 -18 10 -10 -2 -24 2 -31 11 -7 8 -19 12 -26
10 -8 -3 -24 4 -36 15 -13 12 -27 21 -31 21 -11 0 -78 67 -78 78 0 4 -9 18
-21 31 -11 12 -18 29 -15 37 3 8 -1 14 -10 14 -12 0 -15 7 -12 30 3 21 0 30
-9 30 -14 0 -14 8 -14 195 0 17 0 65 0 107 0 43 6 88 12 100 7 13 12 36 11 51
-1 15 3 38 10 50 6 12 11 36 10 53 -2 17 4 37 12 43 8 7 13 18 10 26 -3 7 1
27 10 43 8 16 13 32 10 35 -3 3 4 32 16 64 12 32 22 66 22 77 -1 10 6 25 14
33 8 8 12 19 8 24 -6 11 16 79 33 97 7 7 10 19 7 27 -3 8 1 21 10 30 8 9 12
23 9 31 -3 9 -2 19 3 23 6 3 21 40 34 81 13 41 27 77 30 80 3 3 12 25 20 50 7
25 20 52 27 61 7 9 10 18 7 22 -4 3 8 35 25 71 17 36 31 69 31 73 0 5 9 28 20
51 11 22 20 48 20 57 0 8 5 15 10 15 6 0 10 9 10 20 0 11 4 20 8 20 4 0 14 20
21 45 7 24 30 80 52 125 21 44 39 84 39 89 0 12 64 135 73 139 4 2 7 12 7 23
0 10 5 19 10 19 6 0 10 7 10 15 0 19 219 459 231 463 5 2 9 12 9 23 0 10 5 19
10 19 6 0 10 8 11 18 0 9 9 31 19 47 11 17 34 57 51 90 17 33 35 62 40 63 5 2
9 11 10 20 0 10 9 31 20 47 10 17 24 40 30 53 7 12 16 22 21 22 4 0 8 8 9 18
0 9 9 31 20 47 10 17 24 40 30 53 7 12 16 22 21 22 4 0 8 7 8 15 0 16 39 77
53 83 4 2 7 10 7 18 0 15 39 76 53 82 4 2 7 12 7 23 0 10 9 24 20 31 11 7 20
18 20 24 0 20 32 75 46 81 8 3 14 11 14 18 0 14 120 198 133 203 4 2 7 12 7
23 0 10 9 24 20 31 11 7 20 21 20 30 0 10 9 23 20 30 11 7 20 20 20 29 0 9 7
22 16 30 8 7 32 38 52 68 20 31 44 63 54 72 10 9 18 24 18 33 0 9 9 21 20 28
11 7 20 20 20 30 0 9 14 28 30 41 17 14 30 33 30 41 0 9 9 21 20 28 11 7 20
20 20 30 0 9 14 28 30 41 17 14 30 32 30 40 0 9 14 27 30 40 17 14 30 32 30
40 0 9 14 27 30 40 17 14 30 32 30 40 0 9 14 27 30 40 17 14 30 32 30 40 0 8
18 31 40 51 22 20 40 41 40 47 0 12 44 67 118 146 23 25 42 51 42 58 0 7 23
33 50 59 28 26 50 52 50 58 0 11 57 77 178 205 34 36 62 71 62 77 0 6 45 56
100 110 55 55 100 104 100 110 0 14 742 756 756 756 6 0 55 45 110 100 54 55
104 100 111 100 6 0 42 32 79 70 37 39 73 70 79 70 6 0 36 22 66 50 156 143
187 170 197 170 7 0 24 13 39 28 16 16 35 33 44 38 18 10 77 58 144 117 23 20
48 37 54 37 7 0 24 14 38 30 13 17 31 30 38 30 7 0 29 15 49 33 61 55 103 87
116 87 6 0 23 14 37 30 13 17 31 30 39 30 8 0 25 9 37 20 55 50 96 80 106 80
7 0 22 9 34 20 58 52 96 80 108 80 8 0 20 9 27 20 7 11 20 20 30 20 9 0 23 9
30 20 7 11 20 20 30 20 9 0 23 9 30 20 7 11 20 20 30 20 9 0 23 9 30 20 7 11
20 20 30 20 9 0 23 9 30 20 7 11 21 20 31 20 11 0 21 3 23 8 5 12 128 92 141
92 7 0 18 9 25 20 7 11 20 20 30 20 9 0 23 9 30 20 7 11 21 20 32 20 11 0 20
4 20 8 0 5 10 14 23 21 12 6 36 20 52 30 17 11 37 20 46 20 9 1 19 7 22 15 6
15 62 46 82 46 7 0 15 6 18 14 6 14 102 66 123 66 6 0 14 6 17 14 6 14 102 66
124 66 7 0 13 3 13 8 0 13 182 112 206 112 7 0 14 4 16 9 2 5 75 45 163 90 88
45 167 85 175 90 44 25 192 91 204 91 8 0 16 3 18 8 3 8 126 72 139 72 5 0 46
18 91 39 46 22 101 45 123 53 22 7 42 15 45 18 8 8 53 28 95 42 22 7 42 15 45
18 10 10 50 30 60 30 6 0 30 9 52 20 23 11 46 20 50 20 5 0 28 9 50 20 23 11
45 20 50 20 5 0 28 9 53 21 24 11 48 18 54 15 5 -3 16 1 24 9 9 8 20 15 26 15
6 0 30 9 54 19 23 11 71 29 107 41 36 13 71 27 77 32 7 6 19 8 28 5 8 -4 21 1
30 9 8 9 21 14 28 11 6 -2 19 1 27 7 20 16 391 139 398 132 3 -4 13 1 23 10
10 9 25 14 33 11 8 -3 20 1 27 9 7 8 19 13 28 11 9 -2 29 3 44 10 16 8 35 12
42 9 8 -3 19 2 25 9 7 8 22 14 34 14 11 -1 47 9 79 21 32 12 61 19 64 16 3 -3
19 2 35 10 16 9 36 13 44 10 7 -3 20 2 29 10 8 9 21 14 28 11 6 -2 25 2 40 10
16 8 34 12 40 10 7 -2 25 2 40 10 16 8 34 12 40 10 7 -2 25 2 40 10 16 8 34
12 40 10 7 -2 25 2 40 10 16 8 38 13 50 11 12 -1 37 4 55 11 18 8 35 11 39 8
3 -4 19 1 35 9 16 8 35 13 41 11 7 -2 24 2 39 10 15 7 40 12 55 11 16 -1 38 4
50 10 12 7 35 11 50 10 15 -1 38 4 50 10 12 7 35 11 50 10 15 -1 38 4 50 10
12 7 35 11 50 10 15 -1 38 4 50 10 12 7 35 11 50 10 15 -1 38 4 51 11 12 6 39
11 60 10 20 -2 47 3 60 10 12 6 39 11 60 10 20 -2 47 3 60 10 12 6 39 11 60
10 20 -2 47 3 60 10 12 6 44 11 70 10 26 -1 57 3 70 10 12 6 44 11 70 10 26
-1 57 3 70 10 12 7 48 11 80 10 32 -1 68 3 80 10 13 7 53 11 90 10 38 -1 78 3
90 10 13 7 53 12 90 12 37 -1 83 2 102 6 19 3 73 8 120 10 47 2 101 7 120 10
19 4 91 8 160 11 165 5 210 9 217 16 8 8 1242 2 1303 -6z"/>
<path d="M35125 50479 c-236 -17 -498 -44 -610 -63 -16 -3 -75 -13 -130 -21
-531 -84 -1132 -262 -1645 -487 -1111 -486 -2075 -1250 -2811 -2228 -115 -153
-348 -504 -449 -677 -114 -196 -327 -624 -390 -783 -12 -29 -29 -72 -40 -94
-10 -23 -27 -66 -38 -96 -11 -30 -34 -93 -52 -140 -274 -739 -420 -1567 -420
-2395 0 -942 176 -1822 539 -2700 90 -217 281 -601 401 -808 101 -173 334
-524 449 -677 330 -438 714 -843 1131 -1191 596 -497 1313 -914 2035 -1181
508 -188 1068 -324 1600 -388 50 -6 108 -13 130 -15 145 -18 499 -35 715 -35
218 0 601 18 728 35 20 2 78 9 127 15 779 93 1535 318 2250 671 216 107 327
167 520 283 759 455 1448 1079 1987 1796 454 605 787 1239 1043 1985 71 208
169 575 219 825 200 999 179 2066 -60 3035 -51 209 -113 425 -159 560 -171
498 -367 927 -617 1350 -467 789 -1107 1499 -1848 2051 -529 394 -1127 720
-1740 947 -571 212 -1171 349 -1780 406 -328 31 -812 40 -1085 20z m735 -662
c25 -3 88 -6 140 -6 52 0 111 -5 130 -12 19 -6 65 -10 102 -9 37 0 78 -4 90
-11 13 -7 44 -11 70 -10 26 1 58 -4 70 -10 13 -7 45 -11 72 -10 31 1 52 -3 57
-10 5 -8 24 -12 48 -11 23 2 51 -3 63 -9 13 -7 36 -12 51 -11 15 1 38 -3 50
-10 12 -6 34 -11 50 -10 15 1 40 -4 55 -11 15 -8 32 -12 39 -10 6 2 24 -2 40
-10 15 -8 33 -12 40 -10 6 2 25 -3 41 -11 16 -8 32 -13 35 -9 4 3 21 0 39 -8
18 -7 40 -12 49 -11 9 2 21 -4 28 -12 7 -8 18 -13 26 -10 7 3 26 -1 42 -9 15
-8 34 -12 41 -10 7 3 21 -2 31 -11 10 -9 20 -14 23 -10 8 7 259 -76 279 -93 9
-7 18 -10 22 -7 3 4 27 -3 52 -15 24 -11 52 -21 60 -21 8 0 15 -4 15 -8 0 -5
23 -15 50 -22 28 -7 50 -16 50 -20 0 -3 21 -12 48 -20 51 -15 125 -50 130 -62
2 -5 10 -8 18 -8 23 0 264 -113 303 -142 13 -10 30 -18 38 -18 14 0 75 -39 81
-52 2 -5 9 -8 16 -8 23 0 166 -80 166 -92 0 -5 7 -8 15 -8 16 0 77 -39 83 -52
2 -5 12 -8 23 -8 10 0 24 -9 31 -20 7 -11 18 -20 25 -20 14 0 192 -118 214
-142 9 -10 24 -18 33 -18 9 0 21 -9 28 -20 7 -11 20 -20 30 -20 9 0 28 -13 41
-30 14 -16 31 -30 37 -30 13 0 55 -32 116 -87 20 -18 42 -33 49 -33 7 0 29
-18 49 -40 20 -22 42 -40 49 -40 7 0 34 -22 60 -50 26 -27 53 -50 60 -50 7 0
52 -40 100 -90 49 -49 93 -90 98 -90 14 0 299 -284 299 -298 0 -6 45 -55 100
-108 55 -53 100 -103 100 -110 0 -7 23 -35 50 -61 28 -26 50 -53 50 -60 0 -7
18 -29 40 -49 22 -20 40 -43 40 -50 0 -8 18 -31 40 -51 22 -21 40 -43 40 -51
0 -7 14 -25 30 -39 17 -13 30 -32 30 -41 0 -10 9 -23 20 -30 11 -7 20 -19 20
-27 0 -9 9 -26 20 -38 52 -58 80 -96 80 -108 0 -8 9 -20 20 -27 11 -7 20 -21
20 -31 0 -10 6 -21 14 -24 14 -6 46 -61 46 -81 0 -6 9 -17 20 -24 11 -7 20
-21 20 -31 0 -10 6 -21 14 -24 15 -6 46 -62 46 -82 0 -7 6 -15 14 -18 15 -6
46 -62 46 -84 0 -7 5 -13 10 -13 6 0 10 -9 10 -20 0 -11 3 -20 8 -20 13 0 92
-143 92 -167 0 -7 5 -13 10 -13 6 0 10 -9 10 -20 0 -11 5 -20 10 -20 6 0 10
-9 10 -20 0 -11 3 -20 8 -20 8 0 32 -49 32 -67 0 -7 5 -13 10 -13 6 0 10 -9
10 -20 0 -11 3 -20 8 -20 7 0 32 -47 32 -62 0 -4 18 -45 40 -90 22 -46 40 -87
40 -91 0 -4 9 -27 20 -49 11 -23 20 -45 20 -50 0 -5 9 -27 19 -51 11 -23 29
-71 41 -107 13 -36 27 -71 32 -77 6 -7 8 -19 5 -28 -4 -8 1 -21 9 -30 9 -9 13
-22 10 -30 -3 -8 2 -21 10 -30 9 -9 13 -22 10 -30 -3 -8 1 -21 9 -28 8 -8 14
-23 13 -33 0 -11 9 -44 21 -74 12 -30 19 -60 17 -67 -3 -6 2 -17 10 -24 8 -7
14 -19 12 -28 -1 -9 4 -31 11 -49 8 -18 11 -35 8 -39 -4 -3 1 -19 9 -35 8 -16
13 -35 11 -41 -2 -7 2 -25 10 -40 8 -16 12 -34 10 -40 -2 -7 2 -24 10 -39 7
-15 12 -40 11 -55 -1 -16 4 -38 10 -50 7 -12 11 -35 10 -50 -1 -15 4 -38 10
-50 7 -12 11 -35 10 -50 -1 -15 4 -38 11 -51 6 -12 11 -39 10 -60 -2 -20 3
-47 10 -60 7 -13 11 -38 10 -55 -1 -18 3 -51 10 -75 6 -23 12 -61 11 -85 0
-23 3 -58 6 -77 4 -19 9 -69 11 -110 2 -41 7 -91 10 -110 9 -46 9 -804 0 -850
-3 -19 -8 -73 -10 -120 -2 -47 -7 -101 -10 -120 -4 -19 -7 -54 -7 -77 1 -24
-5 -62 -11 -85 -7 -24 -11 -57 -10 -75 1 -17 -3 -42 -10 -55 -7 -13 -12 -40
-10 -60 1 -21 -4 -48 -10 -60 -7 -13 -12 -36 -11 -51 1 -15 -3 -38 -10 -50 -6
-12 -11 -35 -10 -50 1 -15 -3 -38 -10 -50 -6 -12 -11 -34 -10 -50 1 -15 -4
-40 -11 -55 -8 -15 -12 -32 -10 -39 2 -6 -2 -24 -10 -40 -8 -15 -12 -33 -10
-40 2 -6 -2 -24 -10 -40 -8 -15 -12 -33 -10 -40 2 -6 -2 -24 -10 -40 -8 -15
-12 -34 -10 -40 3 -7 -2 -20 -11 -28 -8 -9 -13 -21 -10 -28 2 -7 -5 -37 -17
-67 -12 -30 -21 -63 -21 -74 1 -10 -5 -25 -13 -33 -8 -7 -12 -20 -9 -28 3 -8
-1 -21 -10 -30 -8 -9 -13 -22 -10 -30 3 -8 -1 -21 -9 -30 -8 -8 -13 -24 -10
-35 3 -11 1 -20 -4 -20 -5 0 -15 -21 -23 -47 -7 -27 -20 -54 -27 -61 -7 -8
-10 -18 -7 -23 3 -6 -4 -30 -15 -54 -12 -25 -21 -51 -21 -58 0 -7 -4 -17 -8
-23 -5 -5 -15 -25 -22 -44 -25 -69 -35 -90 -42 -90 -5 0 -8 -7 -8 -15 0 -22
-80 -198 -92 -203 -5 -2 -8 -9 -8 -16 0 -16 -62 -140 -72 -144 -5 -2 -8 -9 -8
-15 0 -21 -72 -159 -86 -164 -8 -3 -14 -14 -14 -24 0 -10 -4 -19 -10 -19 -5 0
-10 -6 -10 -13 0 -22 -31 -78 -46 -84 -8 -3 -14 -11 -14 -18 0 -20 -31 -76
-46 -82 -8 -3 -14 -12 -14 -19 0 -15 -39 -76 -52 -82 -5 -2 -8 -12 -8 -23 0
-10 -9 -24 -20 -31 -11 -7 -20 -21 -20 -30 0 -10 -9 -23 -20 -30 -11 -7 -20
-21 -20 -30 0 -10 -9 -23 -20 -30 -11 -7 -20 -20 -20 -30 0 -9 -13 -28 -30
-41 -17 -14 -30 -31 -30 -38 0 -10 -30 -50 -80 -106 -11 -12 -20 -29 -20 -36
0 -8 -18 -31 -40 -51 -22 -20 -40 -42 -40 -50 0 -7 -18 -30 -40 -50 -22 -20
-40 -42 -40 -50 0 -7 -22 -34 -50 -60 -27 -26 -50 -53 -50 -60 0 -7 -36 -48
-80 -90 -44 -43 -80 -83 -80 -89 0 -15 -322 -337 -337 -337 -7 0 -47 -36 -89
-80 -42 -44 -83 -80 -90 -80 -7 0 -39 -27 -71 -60 -32 -33 -64 -60 -71 -60 -6
0 -28 -18 -48 -40 -20 -22 -42 -40 -49 -40 -7 0 -29 -15 -49 -32 -61 -56 -103
-88 -116 -88 -6 0 -23 -13 -37 -30 -13 -16 -31 -30 -40 -30 -8 0 -26 -13 -40
-30 -13 -16 -33 -30 -43 -30 -10 0 -20 -3 -22 -7 -5 -13 -188 -133 -201 -133
-7 0 -18 -9 -25 -20 -7 -11 -21 -20 -32 -20 -11 0 -20 -4 -20 -8 0 -5 -10 -14
-22 -21 -13 -6 -36 -20 -53 -30 -16 -11 -37 -20 -46 -20 -9 -1 -19 -7 -22 -15
-6 -15 -62 -46 -84 -46 -7 0 -13 -4 -13 -10 0 -5 -9 -10 -19 -10 -11 0 -21 -3
-23 -7 -11 -26 -383 -213 -422 -213 -8 0 -16 -3 -18 -7 -4 -10 -83 -48 -133
-65 -22 -7 -42 -15 -45 -18 -3 -3 -25 -12 -50 -20 -25 -8 -47 -17 -50 -20 -3
-3 -25 -12 -50 -20 -25 -7 -63 -22 -85 -31 -69 -30 -287 -101 -293 -95 -3 3
-13 -1 -23 -10 -10 -9 -25 -14 -33 -11 -9 4 -22 -1 -31 -9 -8 -9 -21 -14 -28
-11 -6 2 -25 -2 -40 -10 -16 -8 -34 -12 -40 -10 -7 2 -25 -2 -40 -10 -16 -8
-35 -12 -42 -9 -8 3 -19 -2 -26 -10 -7 -8 -25 -14 -39 -12 -15 1 -35 -3 -43
-11 -9 -7 -26 -11 -39 -10 -13 2 -38 -3 -55 -10 -18 -7 -42 -11 -53 -8 -11 3
-27 -1 -35 -9 -8 -8 -27 -13 -42 -12 -15 1 -38 -4 -51 -11 -12 -6 -39 -11 -60
-10 -20 2 -47 -3 -60 -10 -12 -6 -39 -11 -60 -10 -20 2 -47 -3 -60 -10 -12 -6
-44 -11 -70 -10 -26 1 -57 -3 -70 -10 -13 -7 -47 -11 -75 -10 -29 1 -71 -4
-95 -10 -24 -7 -80 -12 -125 -12 -45 0 -98 -2 -117 -6 -44 -9 -720 -9 -780 0
-25 3 -77 6 -117 6 -40 0 -91 5 -115 12 -24 6 -64 11 -89 10 -26 -1 -66 3 -90
10 -24 6 -63 11 -86 10 -23 -1 -52 3 -65 10 -13 7 -40 12 -60 10 -21 -1 -48 4
-60 10 -13 7 -36 12 -51 11 -15 -1 -38 3 -50 10 -12 6 -35 11 -50 10 -15 -1
-38 3 -50 10 -12 6 -34 11 -50 10 -15 -1 -40 4 -55 11 -15 8 -32 12 -39 10 -6
-2 -24 2 -40 10 -15 8 -33 12 -40 10 -6 -2 -25 3 -41 11 -16 8 -32 13 -35 9
-4 -3 -21 0 -39 8 -18 7 -40 12 -49 11 -9 -2 -21 4 -28 12 -7 8 -18 13 -26 10
-7 -3 -26 1 -42 9 -15 8 -34 12 -40 10 -7 -3 -20 2 -28 11 -9 8 -22 13 -30 10
-8 -3 -21 1 -30 10 -9 8 -22 13 -30 10 -8 -3 -21 1 -30 10 -9 8 -22 13 -30 10
-8 -3 -21 1 -30 10 -9 8 -23 12 -31 9 -9 -3 -19 -2 -23 3 -3 6 -40 21 -81 34
-41 13 -77 27 -80 31 -3 3 -26 12 -52 20 -27 7 -48 16 -48 19 0 4 -22 13 -50
20 -27 7 -50 17 -50 22 0 4 -7 8 -15 8 -8 0 -36 10 -62 21 -99 45 -138 64
-143 70 -3 3 -17 9 -32 12 -15 4 -33 14 -42 22 -8 8 -19 15 -25 15 -17 0 -101
43 -101 52 0 4 -9 8 -20 8 -11 0 -20 5 -20 10 0 6 -9 10 -20 10 -11 0 -20 5
-20 10 0 6 -8 10 -17 11 -10 0 -31 9 -48 20 -16 10 -49 29 -72 41 -24 12 -43
26 -43 30 0 4 -6 8 -13 8 -22 0 -78 31 -84 46 -3 8 -11 14 -18 14 -20 0 -76
31 -82 46 -3 8 -11 14 -18 14 -16 0 -253 156 -276 182 -9 10 -22 18 -29 18
-11 0 -51 29 -107 80 -12 11 -28 20 -34 20 -11 0 -45 27 -137 110 -19 17 -40
30 -47 30 -7 0 -33 23 -59 50 -26 27 -52 50 -59 50 -7 0 -43 32 -81 70 -38 39
-74 70 -80 70 -15 0 -486 473 -486 487 0 6 -29 39 -65 74 -36 34 -65 68 -65
76 0 7 -18 29 -40 49 -22 20 -40 43 -40 51 0 8 -4 11 -10 8 -5 -3 -10 1 -10 9
0 9 -18 32 -40 52 -22 20 -40 43 -40 51 0 8 -13 26 -30 40 -16 13 -30 31 -30
40 0 8 -13 26 -30 40 -16 13 -30 32 -30 40 0 9 -8 23 -18 32 -10 9 -34 41 -54
72 -20 30 -44 61 -52 68 -9 8 -16 21 -16 30 0 9 -9 22 -20 29 -11 7 -20 20
-20 30 0 9 -9 23 -20 30 -11 7 -20 21 -20 31 0 11 -3 21 -7 23 -14 6 -53 67
-53 83 0 8 -4 15 -8 15 -5 0 -14 10 -21 23 -6 12 -20 36 -30 52 -11 17 -20 37
-20 46 -1 9 -7 19 -15 22 -15 6 -46 62 -46 84 0 7 -4 13 -10 13 -5 0 -10 9
-10 20 0 11 -4 20 -10 20 -5 0 -10 9 -10 19 0 11 -4 21 -9 23 -8 3 -31 44 -90
158 -40 78 -81 171 -81 185 0 8 -3 15 -8 15 -8 0 -22 31 -44 95 -7 22 -15 42
-18 45 -11 11 -27 48 -41 93 -7 26 -17 47 -21 47 -4 0 -8 7 -8 15 0 8 -10 36
-21 60 -12 25 -19 49 -15 52 3 4 0 13 -7 22 -18 21 -139 389 -132 401 3 4 -2
16 -11 24 -8 9 -14 22 -11 29 2 6 -2 25 -10 40 -8 16 -12 34 -10 40 2 7 -2 25
-10 40 -8 16 -12 34 -10 40 2 7 -2 25 -10 40 -8 16 -12 34 -10 40 2 7 -2 24
-9 38 -7 14 -13 35 -13 45 1 10 -2 30 -6 44 -4 14 -8 37 -10 51 -2 14 -8 36
-15 48 -6 12 -10 32 -9 44 1 12 -3 41 -10 65 -7 24 -10 51 -8 60 2 9 -3 30
-10 45 -8 15 -13 49 -12 75 1 26 -3 57 -10 70 -7 13 -11 42 -10 65 1 23 -3 61
-10 85 -7 24 -12 71 -12 105 1 34 -2 78 -6 97 -9 46 -17 294 -17 500 1 342 3
431 15 472 6 23 12 74 13 113 2 38 6 86 9 105 4 19 7 56 6 82 0 26 6 58 12 70
7 13 11 44 10 70 -1 26 4 60 12 75 7 15 12 36 10 45 -2 9 1 36 8 60 7 24 11
53 10 65 -1 12 3 32 10 45 7 13 12 35 11 51 -1 15 4 40 11 55 8 15 12 32 10
39 -2 6 2 24 10 40 8 15 12 33 10 40 -2 6 2 24 10 40 8 15 12 33 10 40 -2 6 2
24 10 40 8 15 12 33 10 40 -2 6 2 24 10 40 8 15 12 34 10 40 -3 7 3 20 11 29
9 8 14 20 11 24 -5 9 134 440 145 450 3 3 12 25 20 50 8 25 17 47 20 50 3 3
11 23 18 45 8 22 22 59 33 82 10 24 19 47 19 52 0 13 44 95 53 99 4 2 7 10 7
18 0 12 50 126 71 164 5 8 14 26 20 40 6 14 15 32 20 40 5 8 19 34 31 58 12
23 26 42 30 42 4 0 8 9 8 20 0 11 5 20 10 20 6 0 10 9 10 20 0 11 5 20 10 20
6 0 10 8 11 18 0 9 9 31 20 47 10 17 24 40 30 53 7 12 16 22 21 22 4 0 8 7 8
15 0 16 39 77 53 83 4 2 7 10 7 17 0 14 119 198 133 203 4 2 7 12 7 22 0 9 7
23 16 31 8 7 32 38 52 68 20 31 47 67 59 81 13 14 23 28 23 32 0 4 11 18 25
32 14 14 25 32 25 40 0 8 14 26 30 39 17 14 30 32 30 40 0 8 18 31 40 51 22
20 40 42 40 50 0 7 23 34 50 60 28 26 50 52 50 59 0 7 27 38 60 70 33 32 60
64 60 70 0 14 461 477 476 477 6 0 47 36 90 80 44 44 84 80 91 80 7 0 33 23
59 50 26 28 52 50 59 50 7 0 28 13 47 30 95 85 126 110 139 110 8 0 20 9 27
20 7 11 19 20 28 20 8 0 27 14 41 30 13 17 32 30 40 30 9 0 23 8 32 18 23 25
78 62 92 62 6 0 19 8 28 18 24 26 78 62 93 62 7 0 19 9 26 20 7 11 21 20 31
20 10 0 21 6 24 14 6 15 62 46 82 46 7 0 15 6 18 14 6 15 62 46 84 46 7 0 13
3 13 8 0 13 143 92 167 92 7 0 13 5 13 10 0 6 9 10 20 10 11 0 20 5 20 10 0 6
9 10 19 10 11 0 21 4 23 9 4 12 124 71 143 71 8 0 15 5 15 10 0 6 9 10 19 10
11 0 21 3 23 8 4 8 86 52 99 52 5 0 35 13 68 29 32 15 79 34 105 42 25 7 46
16 46 19 0 4 23 13 50 20 28 7 50 17 50 22 0 4 7 8 15 8 8 0 35 9 60 21 24 11
48 18 54 15 5 -3 17 1 25 10 9 9 23 13 31 10 8 -3 21 2 30 10 9 9 22 13 30 10
8 -3 21 2 30 10 9 9 22 13 30 10 8 -3 21 1 28 9 8 8 23 14 33 13 11 0 43 9 72
20 29 11 61 21 70 20 9 0 43 10 75 22 32 12 61 19 64 16 3 -3 19 2 36 10 16 9
40 14 53 11 13 -2 29 2 36 10 6 8 23 13 37 11 15 -1 41 4 59 11 17 7 41 11 52
8 10 -3 25 1 31 9 7 8 26 14 43 13 17 0 42 2 56 6 14 4 41 9 61 10 20 2 46 8
58 15 12 6 37 10 54 9 18 -1 51 3 75 10 23 6 61 11 85 10 23 -1 52 3 65 10 12
7 53 11 90 11 37 -1 83 3 102 9 19 7 78 12 130 12 116 0 179 5 188 13 7 8 519
2 582 -7z"/>
<path d="M21950 41182 c0 -34 83 -443 141 -697 135 -586 346 -1305 509 -1730
10 -27 40 -106 65 -175 103 -274 226 -567 381 -910 70 -155 310 -632 411 -820
1070 -1974 2608 -3682 4463 -4957 765 -526 1613 -993 2446 -1349 1473 -628
2987 -995 4574 -1109 732 -52 1601 -44 2315 21 254 23 638 68 800 94 33 5 119
19 190 30 365 56 962 182 1355 285 544 143 1220 369 1710 570 239 99 299 124
430 183 1126 502 2158 1131 3115 1898 1144 916 2139 2001 2952 3220 374 560
677 1091 988 1729 149 307 341 732 333 740 -3 3 -772 5 -1709 5 -1352 0 -1706
-3 -1716 -13 -7 -7 -50 -77 -96 -157 -385 -669 -850 -1301 -1401 -1905 -140
-153 -535 -548 -691 -691 -1360 -1245 -2994 -2129 -4780 -2589 -324 -83 -729
-166 -1050 -216 -603 -92 -1082 -128 -1716 -129 -523 0 -839 17 -1299 71
-1264 147 -2493 508 -3635 1069 -1895 930 -3495 2385 -4597 4180 -328 534
-626 1127 -858 1709 -203 507 -369 1032 -475 1496 -15 66 -30 131 -34 144 l-7
24 -1557 1 -1557 1 0 -23z m1853 -803 c11 -7 52 -11 90 -10 44 1 74 -3 84 -11
9 -7 28 -11 43 -10 14 2 32 -4 39 -12 7 -8 19 -12 27 -9 8 3 23 -2 33 -11 10
-9 20 -13 24 -10 9 9 117 -45 124 -62 3 -8 14 -14 24 -14 10 0 24 -9 31 -20 7
-11 19 -20 27 -20 17 0 141 -123 141 -140 0 -6 14 -23 30 -37 17 -13 30 -32
30 -41 0 -10 9 -23 20 -30 11 -7 20 -21 20 -32 0 -11 5 -20 10 -20 6 0 10 -9
10 -19 0 -10 6 -21 14 -24 15 -6 46 -62 46 -84 0 -7 5 -13 10 -13 6 0 10 -9
10 -20 0 -11 5 -20 10 -20 6 0 10 -9 10 -19 0 -11 3 -21 8 -23 12 -5 47 -79
62 -130 8 -27 18 -48 22 -48 4 0 8 -9 8 -20 0 -11 3 -20 8 -20 7 0 32 -47 32
-62 0 -4 14 -36 30 -70 17 -34 30 -65 30 -70 0 -4 14 -36 30 -70 17 -34 30
-65 30 -70 0 -4 18 -47 41 -95 69 -149 79 -173 79 -187 0 -8 3 -16 8 -18 12
-5 92 -181 92 -203 0 -8 5 -15 10 -15 6 0 10 -9 10 -20 0 -11 5 -20 10 -20 6
0 10 -9 10 -19 0 -11 3 -21 8 -23 10 -4 212 -409 212 -425 0 -7 5 -13 10 -13
6 0 10 -9 10 -20 0 -11 4 -20 8 -20 4 0 18 -19 30 -42 12 -24 31 -56 41 -73
11 -16 20 -38 20 -47 1 -10 5 -18 9 -18 5 0 17 -18 27 -40 10 -22 24 -45 32
-51 7 -6 13 -20 13 -30 0 -11 4 -19 8 -19 5 0 14 -10 21 -22 6 -13 20 -36 30
-53 11 -16 20 -37 20 -47 1 -9 4 -18 9 -20 13 -6 52 -67 52 -82 0 -8 3 -16 8
-18 12 -5 52 -66 52 -80 0 -7 9 -19 20 -26 11 -7 20 -21 20 -31 0 -11 3 -21 8
-23 12 -5 52 -66 52 -80 0 -7 9 -19 20 -26 11 -7 20 -20 20 -30 0 -9 9 -23 20
-30 11 -7 20 -20 20 -30 0 -9 9 -23 20 -30 11 -7 20 -20 20 -30 0 -9 9 -23 20
-30 11 -7 20 -20 20 -30 0 -9 9 -23 20 -30 11 -7 20 -20 20 -30 0 -9 9 -23 20
-30 11 -7 20 -19 20 -27 0 -9 9 -26 20 -38 50 -55 80 -96 80 -106 0 -7 9 -22
20 -34 50 -56 80 -96 80 -106 0 -7 14 -24 30 -38 17 -13 30 -32 30 -41 0 -10
8 -22 19 -29 10 -6 33 -32 50 -58 38 -56 40 -59 90 -116 23 -25 41 -51 41 -58
0 -6 18 -27 40 -47 22 -20 40 -42 40 -50 0 -7 23 -34 50 -60 28 -26 50 -53 50
-60 0 -7 27 -38 60 -70 33 -31 60 -63 60 -70 0 -6 32 -43 70 -80 39 -37 70
-72 70 -79 0 -6 51 -64 113 -128 61 -64 211 -220 332 -345 121 -126 226 -230
234 -231 8 0 65 -52 128 -113 62 -62 121 -117 131 -122 9 -5 48 -40 86 -77 38
-38 75 -69 81 -69 7 0 33 -22 59 -50 26 -27 53 -50 60 -50 7 0 34 -22 60 -50
26 -27 53 -50 60 -50 8 0 30 -18 50 -40 20 -22 42 -40 50 -40 7 0 30 -18 50
-40 20 -22 42 -40 50 -40 8 0 26 -13 39 -30 14 -16 32 -30 40 -30 9 0 27 -13
40 -30 14 -16 32 -30 40 -30 9 0 27 -13 40 -30 14 -16 32 -30 40 -30 9 0 27
-13 40 -30 14 -16 33 -30 41 -30 9 0 21 -9 28 -20 7 -11 20 -20 30 -20 9 0 28
-13 41 -30 14 -16 33 -30 41 -30 9 0 21 -9 28 -20 7 -11 20 -20 29 -20 9 0 22
-7 29 -15 7 -9 65 -50 129 -93 64 -42 118 -80 119 -84 2 -5 12 -8 23 -8 10 0
24 -9 31 -20 7 -11 21 -20 30 -20 10 0 23 -9 30 -20 7 -11 19 -20 26 -20 14 0
75 -40 80 -52 2 -5 12 -8 23 -8 10 0 24 -9 31 -20 7 -11 18 -20 24 -20 21 0
175 -95 182 -112 2 -5 12 -8 23 -8 10 0 19 -4 19 -10 0 -5 8 -10 18 -11 9 0
31 -9 47 -20 17 -10 40 -24 53 -30 12 -7 22 -16 22 -21 0 -4 8 -8 18 -9 9 0
31 -9 47 -20 17 -10 49 -29 73 -41 23 -12 42 -26 42 -30 0 -4 9 -8 20 -8 11 0
20 -4 20 -10 0 -5 6 -10 13 -10 8 0 56 -22 108 -50 52 -27 123 -63 159 -81 36
-17 72 -36 80 -40 8 -5 26 -14 40 -20 84 -38 195 -95 198 -101 2 -5 12 -8 23
-8 10 0 19 -4 19 -8 0 -4 21 -14 48 -22 43 -12 120 -47 132 -60 3 -3 23 -11
45 -18 22 -8 68 -27 102 -43 34 -16 66 -29 71 -29 4 0 35 -13 68 -28 32 -16
80 -35 107 -43 26 -7 47 -16 47 -19 0 -4 23 -13 50 -20 28 -7 50 -16 50 -20 0
-4 23 -13 50 -20 28 -8 55 -19 61 -26 6 -7 17 -10 26 -7 8 3 18 2 22 -3 3 -5
67 -30 141 -54 74 -25 141 -50 148 -57 7 -7 19 -10 27 -7 8 3 21 -1 30 -10 9
-8 22 -13 30 -10 8 3 21 -1 30 -10 9 -8 22 -13 30 -10 8 3 21 -1 30 -10 9 -8
21 -13 28 -11 7 3 50 -9 97 -26 47 -17 93 -31 104 -30 10 0 25 -6 33 -14 7 -8
20 -12 27 -9 8 3 27 -1 43 -9 15 -8 34 -12 40 -10 7 3 20 -2 28 -11 9 -8 22
-13 29 -10 8 3 27 -1 43 -9 15 -7 35 -12 44 -10 9 2 21 -3 28 -11 7 -8 18 -13
26 -10 7 3 26 -1 42 -9 15 -8 33 -12 40 -10 6 2 24 -2 40 -10 15 -8 33 -12 40
-10 6 2 24 -2 40 -10 15 -8 33 -12 40 -10 6 2 25 -3 41 -11 16 -8 32 -13 35
-9 4 3 21 0 39 -8 18 -7 43 -12 55 -11 12 2 35 -4 51 -12 16 -8 32 -13 35 -9
4 3 21 0 39 -8 18 -7 43 -12 55 -11 12 2 32 -2 45 -9 13 -7 36 -12 51 -11 15
1 38 -3 50 -10 12 -6 35 -11 50 -10 15 1 38 -3 50 -10 12 -6 35 -11 50 -10 15
1 38 -3 50 -10 12 -6 39 -11 59 -9 21 1 48 -4 60 -10 13 -7 40 -12 60 -10 21
1 48 -4 60 -10 13 -7 40 -12 60 -10 21 1 48 -4 60 -10 13 -7 44 -11 70 -10 26
1 58 -4 70 -10 13 -7 42 -11 65 -10 24 1 62 -3 85 -10 24 -7 59 -11 79 -10 20
1 56 -3 80 -9 24 -7 71 -13 104 -15 33 -1 76 -5 95 -8 19 -4 67 -6 107 -6 40
0 91 -5 114 -11 22 -6 91 -13 153 -14 61 -2 131 -5 156 -8 59 -7 1171 -7 1230
0 25 3 97 7 160 9 63 2 131 7 150 10 19 3 71 7 116 9 44 1 99 7 123 14 23 6
70 10 104 9 35 -1 73 3 85 10 12 7 48 11 80 10 32 -1 68 3 80 10 13 7 42 11
65 10 23 -1 62 4 85 10 24 7 56 11 70 10 15 -1 46 3 69 10 24 6 57 11 75 10
18 -2 43 3 56 10 12 6 39 11 60 10 20 -2 47 3 60 10 13 7 38 11 57 10 18 -2
40 2 48 9 8 7 32 12 54 11 21 -2 48 3 60 9 12 7 35 11 50 10 15 -1 38 4 51 11
13 7 33 11 45 9 12 -1 37 4 55 11 18 8 35 11 39 8 3 -4 19 1 35 9 16 8 39 14
51 12 12 -1 37 4 55 11 18 8 35 11 39 8 3 -4 19 1 35 9 16 8 35 13 41 11 7 -2
25 2 40 10 16 8 34 12 40 10 7 -2 25 2 40 10 16 8 34 12 40 10 7 -2 25 2 40
10 16 8 34 12 40 10 7 -2 25 2 40 10 16 8 34 12 40 10 7 -2 25 2 40 10 16 8
35 12 42 9 8 -3 19 2 26 10 7 8 19 13 28 11 9 -2 29 3 44 10 16 8 35 12 43 9
7 -3 20 1 27 9 8 8 23 14 33 13 11 0 44 9 74 21 30 12 60 19 67 17 7 -3 19 2
28 10 9 9 22 13 30 10 8 -3 21 2 30 10 9 9 22 13 30 10 8 -3 21 1 28 9 8 8 23
14 33 14 25 -1 267 83 275 95 4 5 14 6 23 3 8 -3 21 -1 28 6 7 7 47 23 88 37
41 13 78 28 81 34 4 5 14 6 22 3 9 -3 20 0 26 7 6 7 33 18 61 26 27 7 50 16
50 20 0 4 23 13 50 20 28 7 50 16 50 20 0 4 23 13 50 20 28 7 50 17 50 22 0 4
7 8 16 8 8 0 43 13 77 29 34 16 80 35 102 43 22 7 42 15 45 18 9 9 94 48 135
62 22 7 42 15 45 18 3 3 25 15 50 26 25 11 102 48 173 82 70 34 134 62 142 62
8 0 15 5 15 10 0 6 7 10 16 10 8 0 22 7 30 15 9 8 27 18 42 22 15 3 29 9 32
13 3 4 32 22 65 39 33 18 83 45 110 61 28 15 58 29 68 29 9 1 17 6 17 11 0 6
9 10 20 10 11 0 20 3 20 8 0 12 143 92 166 92 7 0 14 3 16 8 6 13 67 52 82 52
8 0 16 3 18 8 6 13 67 52 82 52 8 0 16 3 18 8 6 13 67 52 82 52 8 0 16 3 18 8
6 13 67 52 82 52 8 0 16 3 18 8 5 12 128 92 141 92 7 0 18 9 25 20 7 11 20 20
30 20 9 0 23 9 30 20 7 11 20 20 30 20 9 0 23 9 30 20 7 11 20 20 30 20 9 0
23 9 30 20 7 11 20 20 30 20 9 0 23 9 30 20 7 11 19 20 27 20 9 0 26 9 38 20
58 52 96 80 108 80 8 0 20 9 27 20 7 11 19 20 28 20 8 0 27 13 41 30 13 17 31
30 40 30 8 0 26 14 40 30 13 17 31 30 40 30 8 0 26 14 40 30 13 17 31 30 40
30 8 0 26 14 40 30 13 17 31 30 39 30 8 0 30 18 50 40 20 22 43 40 50 40 8 0
30 18 50 40 20 22 42 40 49 40 7 0 32 18 56 40 97 89 169 150 177 150 4 0 36
29 72 65 36 35 70 65 76 65 6 0 51 40 100 90 49 49 96 91 104 91 8 1 168 159
355 350 434 445 505 520 505 534 0 7 27 38 60 69 33 32 60 63 60 70 0 7 27 39
60 70 33 32 60 63 60 70 0 7 23 34 50 60 28 26 50 53 50 60 0 8 18 30 40 50
22 20 40 42 40 50 0 7 18 30 40 50 22 20 40 41 40 47 0 7 17 31 38 54 57 66
106 126 116 144 5 9 25 32 43 51 18 19 33 38 33 43 0 4 20 28 45 54 25 25 45
51 45 57 0 15 304 316 319 316 7 0 24 14 38 30 13 17 32 30 41 30 10 0 23 9
30 20 7 11 21 20 31 20 11 0 21 3 23 8 5 12 138 75 145 69 3 -4 14 0 24 9 10
9 25 14 33 11 9 -4 22 1 31 9 9 9 22 14 30 11 7 -3 19 1 26 9 6 8 26 14 43 12
17 -1 41 4 54 11 12 6 44 11 70 10 26 -1 57 3 69 9 29 16 267 16 296 1 11 -7
54 -11 94 -10 55 2 73 -1 73 -11 0 -10 11 -12 40 -10 31 3 40 1 40 -11 0 -10
7 -13 18 -10 10 2 24 -2 31 -11 7 -8 19 -12 26 -9 15 5 45 -18 45 -36 0 -6 7
-8 15 -5 19 8 69 -42 61 -61 -3 -9 1 -15 10 -15 11 0 15 -6 11 -20 -3 -13 0
-20 9 -20 8 0 14 -9 14 -20 0 -11 5 -20 10 -20 6 0 10 -38 10 -95 0 -57 -4
-95 -10 -95 -5 0 -10 -17 -10 -39 0 -21 -6 -44 -14 -51 -8 -6 -12 -18 -9 -26
3 -8 -2 -23 -11 -33 -9 -10 -13 -20 -10 -24 4 -3 -3 -27 -15 -52 -11 -24 -21
-49 -21 -54 0 -13 -44 -95 -52 -99 -5 -2 -8 -12 -8 -23 0 -10 -4 -19 -10 -19
-5 0 -10 -8 -10 -19 0 -10 -7 -24 -16 -32 -9 -7 -23 -30 -31 -51 -8 -21 -19
-38 -24 -38 -5 0 -9 -6 -9 -13 0 -22 -31 -78 -46 -84 -8 -3 -14 -11 -14 -18 0
-20 -31 -76 -46 -82 -8 -3 -14 -11 -14 -18 0 -14 -120 -198 -132 -203 -5 -2
-8 -12 -8 -22 0 -10 -13 -30 -30 -43 -16 -14 -30 -33 -30 -41 0 -9 -9 -21 -20
-28 -11 -7 -20 -19 -20 -27 0 -12 -28 -50 -80 -108 -11 -12 -20 -29 -20 -37 0
-8 -13 -26 -30 -39 -16 -14 -30 -32 -30 -40 0 -9 -13 -27 -30 -40 -16 -14 -30
-32 -30 -40 0 -9 -13 -27 -30 -40 -16 -14 -30 -31 -30 -38 0 -11 -27 -44 -110
-137 -17 -19 -30 -39 -30 -44 0 -10 -27 -43 -140 -167 -22 -24 -40 -49 -40
-56 0 -7 -27 -38 -60 -69 -33 -32 -60 -63 -60 -70 0 -7 -27 -39 -60 -70 -33
-32 -60 -63 -60 -69 0 -7 -41 -52 -90 -101 -50 -49 -90 -94 -90 -100 0 -14
-822 -836 -836 -836 -6 0 -51 -40 -100 -90 -49 -49 -94 -90 -100 -90 -7 0 -43
-31 -80 -70 -38 -38 -74 -70 -81 -70 -7 0 -33 -22 -59 -50 -26 -27 -52 -50
-59 -50 -7 0 -32 -18 -56 -40 -124 -113 -157 -140 -167 -140 -5 0 -25 -13 -44
-30 -93 -83 -126 -110 -137 -110 -7 0 -24 -13 -38 -30 -13 -16 -31 -30 -39
-30 -8 0 -26 -12 -41 -27 -16 -16 -44 -39 -63 -53 -45 -31 -48 -33 -91 -70
-20 -16 -42 -30 -48 -30 -7 0 -22 -9 -34 -20 -55 -50 -96 -80 -106 -80 -7 0
-22 -9 -34 -20 -58 -52 -96 -80 -108 -80 -8 0 -20 -9 -27 -20 -7 -11 -20 -20
-30 -20 -9 0 -23 -9 -30 -20 -7 -11 -20 -20 -30 -20 -9 0 -23 -9 -30 -20 -7
-11 -20 -20 -30 -20 -9 0 -23 -9 -30 -20 -7 -11 -20 -20 -30 -20 -9 0 -23 -9
-30 -20 -7 -11 -20 -20 -30 -20 -9 0 -23 -9 -30 -20 -7 -11 -20 -20 -30 -20
-9 0 -23 -9 -30 -20 -7 -11 -21 -20 -31 -20 -11 0 -21 -3 -23 -7 -6 -14 -67
-53 -82 -53 -8 0 -16 -3 -18 -7 -5 -13 -66 -53 -80 -53 -7 0 -19 -9 -26 -20
-7 -11 -21 -20 -31 -20 -11 0 -21 -3 -23 -7 -6 -14 -67 -53 -83 -53 -8 0 -15
-4 -15 -8 0 -5 -18 -17 -40 -27 -22 -10 -45 -24 -51 -32 -6 -7 -20 -13 -30
-13 -11 0 -19 -3 -19 -7 0 -14 -143 -93 -167 -93 -7 0 -13 -3 -13 -7 0 -14
-143 -93 -167 -93 -7 0 -13 -4 -13 -10 0 -5 -9 -10 -20 -10 -11 0 -20 -4 -20
-10 0 -5 -7 -10 -15 -10 -9 0 -21 -5 -28 -11 -39 -35 -470 -249 -502 -249 -8
0 -15 -4 -15 -10 0 -5 -9 -10 -20 -10 -11 0 -20 -4 -20 -10 0 -5 -9 -10 -20
-10 -11 0 -20 -4 -20 -10 0 -5 -9 -10 -20 -10 -11 0 -20 -3 -20 -7 0 -8 -47
-33 -62 -33 -4 0 -45 -18 -90 -39 -46 -22 -101 -45 -123 -53 -22 -7 -42 -15
-45 -18 -11 -11 -50 -30 -62 -30 -7 0 -40 -14 -73 -30 -33 -17 -63 -30 -67
-30 -5 0 -27 -9 -51 -19 -23 -11 -73 -30 -112 -43 -38 -12 -72 -25 -75 -28 -3
-3 -25 -12 -50 -20 -25 -8 -47 -17 -50 -20 -3 -3 -39 -17 -80 -30 -41 -13 -78
-28 -81 -34 -4 -5 -14 -6 -23 -3 -8 3 -21 1 -28 -6 -17 -16 -506 -179 -517
-172 -5 2 -14 -2 -21 -10 -7 -8 -22 -14 -34 -14 -11 0 -59 -13 -105 -29 -46
-17 -91 -30 -100 -30 -9 0 -42 -10 -74 -22 -32 -12 -61 -19 -64 -16 -3 3 -18
-1 -33 -9 -15 -8 -36 -14 -46 -13 -10 0 -45 -10 -77 -22 -32 -12 -61 -19 -64
-16 -3 3 -19 -2 -35 -10 -16 -8 -35 -13 -41 -11 -7 2 -25 -2 -40 -10 -16 -8
-34 -12 -40 -10 -7 2 -25 -2 -40 -10 -16 -8 -34 -12 -40 -10 -7 2 -25 -2 -40
-10 -16 -8 -38 -13 -50 -11 -12 1 -37 -4 -55 -11 -18 -8 -35 -11 -39 -8 -3 4
-19 -1 -35 -9 -16 -8 -39 -14 -51 -12 -12 1 -37 -4 -55 -11 -18 -8 -35 -11
-39 -8 -3 4 -18 0 -34 -9 -16 -8 -41 -13 -56 -12 -16 1 -38 -4 -50 -10 -12 -7
-35 -11 -50 -10 -15 1 -38 -4 -51 -11 -12 -6 -39 -11 -60 -10 -20 2 -47 -3
-59 -9 -12 -7 -35 -11 -50 -10 -15 1 -38 -4 -51 -11 -12 -6 -39 -11 -60 -10
-20 2 -47 -3 -60 -10 -12 -6 -44 -11 -70 -10 -26 1 -57 -3 -70 -10 -12 -6 -39
-11 -60 -10 -20 2 -47 -3 -60 -10 -13 -7 -42 -11 -65 -10 -23 1 -61 -3 -85
-10 -23 -7 -61 -11 -85 -10 -23 1 -52 -3 -65 -10 -13 -7 -47 -11 -75 -10 -29
1 -71 -4 -95 -10 -24 -7 -71 -12 -105 -12 -34 1 -78 -2 -97 -6 -19 -3 -73 -8
-120 -10 -47 -2 -101 -7 -120 -10 -19 -4 -91 -8 -160 -11 -69 -2 -145 -7 -170
-10 -59 -8 -1331 -8 -1390 0 -25 3 -101 8 -170 10 -69 3 -141 7 -160 11 -19 3
-73 8 -120 10 -47 2 -101 7 -120 10 -19 4 -63 7 -97 6 -34 0 -81 5 -105 12
-24 7 -59 11 -79 10 -20 -1 -56 3 -80 10 -24 7 -60 11 -80 10 -20 -1 -56 3
-80 10 -24 6 -63 11 -86 10 -23 -1 -52 3 -65 10 -13 7 -38 12 -56 10 -18 -1
-51 4 -75 10 -23 7 -56 11 -74 10 -17 -1 -42 3 -55 10 -13 7 -40 12 -60 10
-21 -1 -48 4 -60 10 -13 7 -36 12 -51 11 -15 -1 -38 3 -50 10 -12 6 -39 11
-59 9 -21 -1 -48 4 -60 10 -13 7 -36 12 -51 11 -15 -1 -38 3 -50 10 -12 6 -34
11 -50 10 -15 -1 -40 4 -56 12 -16 9 -31 13 -34 9 -4 -3 -21 0 -39 8 -18 7
-43 12 -55 11 -12 -2 -32 2 -45 9 -13 7 -37 12 -54 11 -17 -2 -36 4 -43 11 -6
8 -22 12 -35 10 -13 -3 -36 2 -52 10 -16 8 -34 12 -41 10 -6 -2 -24 2 -40 10
-15 8 -33 12 -40 10 -6 -2 -24 2 -40 10 -15 8 -33 12 -40 10 -6 -2 -24 2 -40
10 -15 8 -33 12 -40 10 -6 -2 -25 3 -41 11 -16 8 -32 13 -35 10 -3 -3 -32 4
-64 16 -32 12 -66 22 -75 22 -9 -1 -41 9 -70 20 -29 11 -61 20 -70 20 -9 0
-41 9 -70 20 -29 11 -61 20 -72 20 -10 -1 -25 6 -33 14 -8 8 -19 12 -23 9 -9
-5 -620 194 -630 205 -3 3 -39 17 -80 30 -41 13 -77 27 -80 30 -3 3 -39 17
-80 30 -41 13 -77 27 -80 30 -3 3 -25 12 -50 20 -25 8 -47 17 -50 20 -3 3 -25
12 -50 20 -25 8 -71 27 -103 42 -31 16 -64 28 -72 28 -8 0 -15 5 -15 10 0 6
-7 10 -15 10 -14 0 -34 8 -167 69 -37 17 -71 31 -76 31 -13 0 -136 64 -140 73
-2 4 -12 7 -23 7 -10 0 -19 5 -19 10 0 6 -7 10 -15 10 -18 0 -65 21 -295 134
-177 86 -241 122 -248 139 -2 4 -12 7 -23 7 -10 0 -19 5 -19 10 0 6 -9 10 -20
10 -11 0 -20 5 -20 10 0 6 -9 10 -20 10 -11 0 -20 5 -20 10 0 6 -8 10 -17 11
-10 0 -31 9 -48 20 -16 10 -40 24 -52 30 -13 7 -23 16 -23 21 0 4 -9 8 -20 8
-11 0 -20 5 -20 10 0 6 -8 10 -17 11 -10 0 -31 9 -48 20 -16 10 -40 24 -52 30
-13 7 -23 16 -23 21 0 4 -8 8 -17 9 -10 0 -31 9 -48 20 -16 10 -40 24 -52 30
-13 7 -23 16 -23 21 0 4 -7 8 -15 8 -16 0 -77 39 -83 53 -2 4 -10 7 -18 7 -15
0 -76 39 -82 53 -2 4 -12 7 -23 7 -10 0 -24 9 -31 20 -7 11 -19 20 -26 20 -14
0 -75 40 -80 53 -2 4 -12 7 -23 7 -10 0 -24 9 -31 20 -7 11 -21 20 -30 20 -10
0 -23 9 -30 20 -7 11 -18 20 -25 20 -15 0 -131 77 -154 102 -9 10 -24 18 -33
18 -9 0 -21 9 -28 20 -7 11 -21 20 -30 20 -10 0 -23 9 -30 20 -7 11 -21 20
-30 20 -10 0 -23 9 -30 20 -7 11 -20 20 -30 20 -9 0 -28 14 -41 30 -14 17 -33
30 -41 30 -9 0 -21 9 -28 20 -7 11 -20 20 -30 20 -9 0 -28 14 -41 30 -14 17
-31 30 -38 30 -6 0 -28 14 -48 30 -43 36 -46 39 -91 70 -19 14 -46 35 -60 48
-13 12 -28 22 -32 22 -4 0 -24 16 -44 35 -19 19 -40 35 -46 35 -10 0 -45 29
-136 110 -19 17 -40 30 -47 30 -7 0 -29 18 -49 40 -20 22 -42 40 -50 40 -7 0
-34 23 -60 50 -26 28 -52 50 -58 50 -11 0 -58 41 -205 178 -37 34 -72 62 -78
62 -6 0 -51 41 -99 90 -49 50 -93 90 -99 90 -15 0 -817 802 -817 816 0 6 -40
51 -90 100 -49 48 -90 93 -90 100 0 7 -31 43 -70 80 -38 37 -70 73 -70 79 0 7
-27 39 -60 71 -33 33 -60 65 -60 72 0 6 -18 28 -40 48 -22 20 -40 42 -40 49 0
8 -17 31 -38 52 -22 21 -43 45 -48 54 -10 18 -57 76 -116 144 -21 23 -38 48
-38 54 0 7 -13 24 -30 38 -16 13 -30 31 -30 40 0 8 -13 26 -30 40 -16 13 -30
31 -30 40 0 8 -13 26 -30 40 -16 13 -30 31 -30 40 0 8 -13 26 -30 40 -16 13
-30 31 -30 39 0 8 -9 25 -20 37 -51 56 -80 96 -80 107 0 7 -8 20 -18 29 -10 9
-43 55 -74 102 -32 47 -64 92 -73 99 -8 7 -15 20 -15 29 0 9 -9 22 -20 29 -11
7 -20 20 -20 30 0 9 -9 23 -20 30 -11 7 -20 20 -20 30 0 9 -9 23 -20 30 -11 7
-20 20 -20 30 0 9 -9 23 -20 30 -11 7 -20 21 -20 31 0 11 -3 21 -7 23 -14 5
-93 128 -93 142 0 8 -3 16 -7 18 -14 6 -53 67 -53 82 0 7 -6 16 -14 19 -15 6
-46 62 -46 82 0 7 -6 15 -14 18 -15 6 -46 62 -46 83 0 7 -3 14 -7 16 -14 6
-53 67 -53 83 0 8 -3 15 -7 15 -14 0 -93 143 -93 167 0 7 -4 13 -10 13 -5 0
-10 9 -10 19 0 10 -6 21 -14 24 -14 6 -66 102 -66 124 0 7 -4 13 -10 13 -5 0
-10 9 -10 19 0 11 -4 21 -9 23 -18 7 -271 513 -271 543 0 8 -4 15 -10 15 -5 0
-10 9 -10 19 0 11 -3 21 -8 23 -10 4 -67 123 -84 173 -7 22 -15 42 -18 45 -10
10 -30 50 -30 60 0 5 -13 38 -30 72 -16 34 -30 66 -30 72 0 6 -14 38 -30 71
-17 33 -30 63 -30 68 0 4 -9 27 -20 49 -11 23 -20 45 -20 50 0 5 -10 29 -21
53 -12 25 -19 49 -15 52 3 4 0 13 -7 22 -7 9 -24 50 -37 91 -14 41 -28 78 -34
81 -5 4 -6 14 -3 22 3 9 -1 21 -9 28 -8 7 -13 20 -12 29 2 9 -2 23 -8 31 -15
21 -56 150 -50 157 3 3 -1 13 -10 23 -9 10 -14 24 -11 31 2 7 -2 26 -10 41 -8
16 -12 35 -9 42 3 8 -2 19 -10 26 -8 7 -14 19 -12 28 1 9 -3 31 -11 48 -7 18
-11 42 -8 53 3 10 -1 25 -9 31 -8 7 -14 26 -12 43 1 17 -4 41 -11 54 -6 12
-11 48 -10 80 1 32 -3 67 -9 79 -17 31 -16 183 1 183 8 0 11 14 9 45 -3 28 1
52 9 62 8 9 13 24 11 35 -2 11 3 18 11 18 10 0 13 7 10 20 -4 14 0 20 11 20 9
0 13 6 10 14 -7 17 78 106 100 106 8 0 16 3 18 8 6 14 96 54 107 48 6 -4 11 0
11 9 0 13 8 16 39 14 21 -2 46 3 55 10 8 7 31 11 50 10 20 -2 41 2 48 9 15 15
142 16 171 1z"/>
<path d="M5276 25599 c-727 -28 -1351 -202 -1906 -534 -392 -235 -744 -564
-1016 -951 -480 -680 -723 -1559 -682 -2464 54 -1206 554 -2210 1410 -2833
472 -343 1077 -570 1738 -651 402 -50 887 -50 1255 0 718 97 1376 381 1905
823 97 81 220 200 220 214 0 5 -175 186 -388 401 -213 215 -419 424 -457 464
-37 39 -73 72 -80 72 -6 0 -27 -16 -46 -36 -18 -20 -79 -72 -134 -117 -336
-271 -764 -463 -1205 -538 -112 -19 -335 -39 -434 -39 -182 0 -508 35 -656 71
-25 6 -65 15 -90 21 -156 36 -359 112 -500 186 -169 89 -260 149 -387 256
-425 354 -697 878 -782 1501 -51 373 -37 670 49 1055 93 416 322 833 621 1132
281 281 643 483 1034 579 230 56 501 89 725 89 142 -1 395 -27 520 -54 235
-51 402 -106 585 -195 218 -105 356 -197 538 -356 47 -41 90 -75 94 -75 5 0
31 23 58 51 28 28 205 200 395 382 189 183 372 358 405 391 l60 58 -80 75
c-473 440 -1058 763 -1653 912 -253 64 -487 98 -717 107 -82 2 -163 6 -180 7
-16 2 -115 0 -219 -4z"/>
<path d="M26559 25463 c0 -5 0 -1621 0 -3593 l0 -3585 633 0 633 0 0 1385 c0
1533 -5 1413 64 1663 18 65 47 134 97 234 151 299 411 529 706 624 131 42 207
52 378 52 192 0 315 -19 455 -73 11 -4 58 -26 105 -50 275 -137 454 -396 529
-765 42 -209 44 -283 40 -1710 l-4 -1360 635 0 635 0 -3 1430 c-3 1491 -4
1558 -28 1770 -43 366 -133 677 -276 955 -85 166 -175 295 -293 418 -288 303
-620 464 -1105 538 -163 25 -561 26 -715 1 -213 -34 -373 -82 -541 -162 -239
-114 -455 -289 -646 -524 -10 -11 -25 -21 -34 -21 -15 0 -15 36 -10 388 3 213
7 837 9 1387 l2 1000 -632 3 c-348 1 -633 -1 -634 -5z"/>
<path d="M34140 25455 c0 0 -1 -1611 -1 -3580 l0 -3580 671 -1 c369 0 672 2
674 5 2 3 0 474 -4 1046 -4 614 -3 1044 2 1050 6 7 372 9 1071 7 1137 -4 1241
0 1522 48 531 92 984 319 1335 670 119 119 247 276 315 389 6 9 21 34 35 56
55 89 142 263 181 363 5 12 13 32 18 45 5 12 14 38 21 57 7 19 16 44 20 55 9
24 31 100 59 210 6 22 15 65 21 95 6 30 15 74 21 98 5 23 9 59 9 80 0 20 5 55
10 77 16 65 13 494 -4 625 -50 375 -164 711 -342 1003 -418 686 -1096 1089
-1964 1167 -104 9 -1469 15 -3670 15z m3315 -1289 c227 -3 285 -7 363 -25 155
-34 277 -80 402 -152 58 -33 190 -141 252 -207 160 -170 259 -369 320 -647 17
-79 17 -400 0 -475 -7 -30 -18 -75 -23 -100 -11 -46 -24 -87 -40 -127 -5 -13
-13 -33 -18 -45 -20 -53 -57 -126 -83 -165 -15 -23 -28 -44 -28 -47 0 -14 -78
-108 -152 -183 -159 -162 -361 -273 -599 -326 -158 -36 -244 -38 -1317 -35
l-1054 3 0 1262 c0 695 3 1266 6 1271 5 8 1382 7 1971 -2z m-2388 -2876 c-4
-15 0 -20 13 -20 10 0 21 6 23 13 4 8 6 7 6 -3 1 -9 -4 -21 -10 -27 -7 -7 -3
-9 15 -6 14 3 26 9 26 14 0 5 7 9 15 9 8 0 15 -7 15 -15 0 -8 -9 -15 -20 -15
-11 0 -20 -3 -20 -8 0 -4 18 -6 40 -4 32 3 40 1 40 -12 0 -9 -7 -16 -16 -16
-8 0 -13 -4 -10 -9 3 -5 16 -7 27 -4 19 5 21 3 17 -26 -3 -17 -1 -34 4 -37 4
-3 8 0 8 6 0 6 7 18 15 26 13 14 15 12 15 -13 0 -17 8 -34 20 -43 16 -12 20
-26 20 -77 0 -35 -4 -63 -10 -63 -5 0 -10 -9 -10 -20 0 -11 -4 -20 -10 -20 -5
0 -10 -9 -10 -20 0 -11 -7 -20 -15 -20 -8 0 -15 7 -15 16 0 8 -4 13 -8 10 -5
-3 -7 -19 -4 -36 2 -18 0 -30 -7 -30 -6 0 -11 -9 -11 -20 0 -13 -7 -20 -20
-20 -11 0 -20 -4 -20 -10 0 -5 -7 -10 -15 -10 -8 0 -15 5 -15 10 0 6 -8 10
-18 10 -10 0 -24 6 -32 13 -8 6 -7 3 3 -9 9 -11 17 -27 16 -35 0 -10 -2 -10
-6 -1 -2 6 -13 12 -23 12 -14 0 -17 -5 -12 -22 5 -20 1 -19 -25 10 -31 32 -53
41 -53 21 0 -6 -7 -4 -15 5 -8 8 -15 26 -15 40 0 14 -4 26 -10 26 -6 0 -10 27
-10 60 0 33 -4 60 -10 60 -5 0 -10 16 -10 35 0 19 5 35 10 35 6 0 10 30 10 70
0 40 4 70 10 70 6 0 10 9 10 20 0 11 5 20 10 20 6 0 11 10 11 23 l2 22 4 -22
c5 -26 33 -32 33 -8 0 13 37 63 49 64 2 1 1 -8 -2 -19z"/>
<path d="M35030 21229 c0 -5 5 -7 10 -4 6 3 10 8 10 11 0 2 -4 4 -10 4 -5 0
-10 -5 -10 -11z"/>
<path d="M35010 21194 c0 -8 5 -12 10 -9 6 4 8 11 5 16 -9 14 -15 11 -15 -7z"/>
<path d="M34978 21193 c7 -3 16 -2 19 1 4 3 -2 6 -13 5 -11 0 -14 -3 -6 -6z"/>
<path d="M35251 21088 c-1 -21 3 -26 15 -21 9 3 11 9 6 12 -5 3 -12 13 -15 21
-3 9 -6 4 -6 -12z"/>
<path d="M35251 20952 c1 -28 3 -31 6 -12 3 14 9 28 15 31 5 4 3 9 -6 12 -13
5 -16 -1 -15 -31z"/>
<path d="M34980 20860 c-13 -8 -12 -10 3 -10 9 0 17 5 17 10 0 12 -1 12 -20 0z"/>
<path d="M35186 20861 c-4 -5 -2 -12 3 -15 5 -4 12 -2 15 3 4 5 2 12 -3 15 -5
4 -12 2 -15 -3z"/>
<path d="M35010 20834 c0 -8 5 -12 10 -9 6 4 8 11 5 16 -9 14 -15 11 -15 -7z"/>
<path d="M35126 20826 c3 -9 16 -16 28 -15 14 0 16 2 6 6 -8 3 -21 10 -28 16
-9 7 -11 6 -6 -7z"/>
<path d="M18612 25437 c-8 -9 -8 -407 -2 -1372 5 -748 5 -1364 1 -1368 -5 -5
-34 25 -64 65 -292 388 -930 680 -1537 705 -445 18 -945 -85 -1325 -271 -258
-127 -434 -255 -631 -459 -277 -286 -462 -631 -575 -1067 -118 -458 -131
-1058 -34 -1525 163 -786 626 -1393 1310 -1716 280 -132 592 -216 930 -249
140 -14 462 -14 582 0 374 43 707 170 958 365 125 98 253 229 325 335 41 59
59 75 64 59 9 -30 37 -265 57 -489 6 -69 15 -135 20 -148 l9 -22 585 2 586 3
1 3580 1 3580 -625 3 c-502 2 -628 0 -636 -11z m-1302 -3168 c98 -19 214 -49
270 -70 415 -157 731 -476 863 -870 25 -76 45 -153 68 -269 19 -93 16 -411 -4
-520 -33 -174 -67 -280 -137 -422 -198 -400 -563 -668 -1035 -759 -92 -18
-449 -19 -525 -1 -168 39 -189 46 -295 88 -239 95 -469 282 -613 496 -119 177
-182 331 -229 553 -22 105 -25 145 -26 320 0 193 4 232 42 410 10 47 55 185
77 235 111 251 265 439 473 579 215 145 433 219 716 245 65 6 296 -4 355 -15z"/>
<path d="M52250 24754 c-21 -6 -591 -68 -915 -100 -148 -15 -273 -31 -276 -36
-3 -5 -4 -297 -1 -648 l5 -640 -473 -2 -472 -3 1 -142 c1 -78 -2 -144 -7 -146
-4 -3 -21 7 -38 22 -50 47 -206 147 -309 199 -338 168 -732 237 -1148 202
-209 -18 -415 -67 -553 -131 -175 -82 -345 -213 -464 -359 -25 -30 -50 -60
-55 -66 -6 -6 -30 -41 -54 -78 -24 -36 -47 -66 -51 -66 -12 0 -21 30 -31 103
-10 75 -22 160 -39 287 -7 47 -15 110 -19 140 l-6 55 -560 -3 c-308 -1 -569
-4 -580 -7 -20 -4 -20 -12 -20 -2517 0 -1382 3 -2515 7 -2518 3 -3 284 -5 624
-5 l619 0 -3 1385 c-3 1227 -2 1398 12 1500 36 253 87 401 200 570 206 311
589 489 1051 489 343 0 595 -86 846 -290 25 -21 50 -35 55 -31 6 4 96 176 201
382 276 543 297 582 308 581 6 -1 11 -114 13 -312 l2 -312 468 4 467 4 5
-1245 c6 -1357 4 -1295 65 -1555 36 -152 70 -247 139 -390 83 -169 164 -281
295 -408 165 -158 343 -265 561 -335 228 -73 379 -94 666 -93 396 0 660 45
1014 173 47 17 88 35 91 41 4 5 -26 107 -66 226 -60 177 -175 530 -252 774
-17 52 -28 64 -46 49 -7 -5 -53 -26 -103 -45 -355 -139 -681 -132 -881 20
-101 77 -187 201 -215 311 -37 149 -38 155 -38 1334 l0 1148 700 -7 c600 -5
700 -4 700 8 -1 8 1 250 2 538 l3 525 -696 -3 c-383 -1 -699 1 -702 6 -2 4 0
323 4 708 9 765 12 725 -51 709z m-470 -1598 c6 -8 18 -12 25 -10 8 3 24 -4
36 -15 13 -12 27 -21 31 -21 18 0 120 -112 114 -126 -3 -8 -1 -14 5 -14 16 0
39 -26 39 -44 0 -9 5 -16 10 -16 6 0 10 -13 10 -30 0 -16 5 -30 10 -30 6 0 10
-28 10 -65 0 -37 -4 -65 -10 -65 -5 0 -10 -13 -10 -30 0 -16 -4 -30 -10 -30
-5 0 -10 -9 -10 -20 0 -11 -7 -20 -15 -20 -9 0 -12 -6 -9 -15 4 -9 -6 -27 -25
-44 -17 -16 -31 -36 -31 -45 0 -9 -7 -16 -16 -16 -20 0 -44 -24 -44 -45 0 -12
-6 -16 -20 -12 -11 3 -20 1 -20 -5 0 -17 -30 -40 -45 -34 -9 3 -15 0 -15 -9 0
-8 -9 -15 -20 -15 -11 0 -20 -4 -20 -10 0 -6 -32 -10 -75 -10 -43 0 -75 4 -75
10 0 6 -9 10 -20 10 -11 0 -20 4 -20 8 0 5 -12 15 -27 23 -33 17 -73 54 -73
68 0 5 -9 7 -20 4 -13 -4 -20 0 -20 9 0 8 -14 30 -31 47 -17 18 -28 39 -25 47
3 8 -1 14 -10 14 -11 0 -15 6 -11 20 3 13 0 20 -9 20 -8 0 -14 9 -14 20 0 11
-4 20 -10 20 -6 0 -10 42 -10 105 0 63 4 105 10 105 6 0 10 9 10 20 0 11 4 20
8 20 5 0 15 12 23 28 7 15 26 39 41 55 16 15 28 34 28 43 0 11 6 15 20 11 11
-3 20 -1 20 5 0 12 26 38 37 38 5 0 19 9 32 21 14 14 31 19 47 16 16 -3 24 0
24 9 0 20 163 20 180 0z"/>
<path d="M61945 23475 c-696 -76 -1303 -372 -1694 -829 -289 -337 -461 -689
-561 -1151 -28 -128 -39 -219 -54 -440 -19 -285 5 -642 59 -890 114 -523 325
-927 660 -1260 439 -438 1024 -679 1780 -735 177 -13 327 -13 491 0 762 60
1415 320 1877 746 31 29 57 57 57 61 0 10 -785 783 -795 783 -4 0 -30 -21 -59
-46 -91 -83 -271 -190 -411 -246 -218 -86 -416 -135 -675 -168 -260 -32 -610
5 -865 91 -198 67 -385 181 -525 319 -130 128 -247 322 -290 480 -7 25 -16 56
-20 70 -5 14 -11 46 -14 73 l-6 47 1974 0 1973 0 6 53 c15 125 20 534 8 675
-25 316 -53 480 -131 767 -14 52 -40 129 -50 147 -6 10 -10 22 -10 28 0 25
-125 282 -187 385 -126 209 -325 428 -519 573 -351 261 -772 413 -1299 467
-172 18 -554 18 -720 0z m595 -1090 c130 -14 208 -27 273 -45 20 -5 52 -14 70
-19 212 -58 443 -212 570 -381 68 -90 128 -205 158 -305 6 -22 15 -49 20 -60
11 -28 20 -83 22 -129 l2 -40 -1340 -2 c-737 -1 -1349 -4 -1360 -6 -16 -2 -21
3 -23 31 -2 18 1 38 7 44 6 6 11 19 11 29 0 10 4 26 10 36 5 9 25 51 45 92 51
108 83 160 149 245 129 164 316 307 511 390 82 35 105 43 155 57 19 5 51 13
70 19 105 29 309 55 440 57 47 1 141 -5 210 -13z m-1970 -1205 c0 -5 14 -10
30 -10 17 0 30 -4 30 -10 0 -5 9 -10 20 -10 11 0 20 -4 20 -10 0 -5 7 -10 16
-10 18 0 44 -24 44 -40 0 -7 14 -25 30 -40 23 -21 30 -37 30 -64 0 -20 5 -36
10 -36 6 0 10 -20 10 -45 0 -25 -4 -45 -10 -45 -5 0 -10 -13 -10 -30 0 -16 -4
-30 -10 -30 -5 0 -10 -7 -10 -15 0 -20 -125 -145 -145 -145 -8 0 -15 -4 -15
-10 0 -5 -9 -10 -20 -10 -11 0 -20 -4 -20 -10 0 -5 -16 -10 -35 -10 -19 0 -35
5 -35 10 0 6 -13 10 -30 10 -23 0 -30 4 -30 20 0 13 -7 20 -20 20 -13 0 -20 7
-20 20 0 11 -4 20 -10 20 -5 0 -10 9 -10 20 0 11 -4 20 -10 20 -5 0 -10 23
-10 50 0 28 -4 50 -10 50 -5 0 -10 16 -10 35 0 19 5 35 10 35 6 0 10 23 10 50
0 28 5 50 10 50 6 0 10 9 10 20 0 11 5 20 10 20 6 0 10 7 10 15 0 26 86 105
115 105 14 0 25 5 25 10 0 6 7 10 15 10 8 0 15 -4 15 -10z"/>
<path d="M60548 21153 c7 -3 16 -2 19 1 4 3 -2 6 -13 5 -11 0 -14 -3 -6 -6z"/>
<path d="M60490 21136 c0 -9 30 -14 35 -6 4 6 -3 10 -14 10 -12 0 -21 -2 -21
-4z"/>
<path d="M60625 21130 c3 -5 8 -10 11 -10 2 0 4 5 4 10 0 6 -5 10 -11 10 -5 0
-7 -4 -4 -10z"/>
<path d="M60465 21110 c4 -6 11 -8 16 -5 14 9 11 15 -7 15 -8 0 -12 -5 -9 -10z"/>
<path d="M60675 21100 c10 -11 23 -16 29 -12 7 4 5 8 -6 10 -10 2 -18 8 -18
13 0 5 -5 9 -12 9 -6 0 -3 -8 7 -20z"/>
<path d="M60410 21043 c0 -12 -6 -23 -12 -26 -7 -2 -10 -7 -7 -11 12 -12 38
29 29 44 -8 12 -10 11 -10 -7z"/>
<path d="M60725 21050 c3 -5 8 -10 11 -10 2 0 4 5 4 10 0 6 -5 10 -11 10 -5 0
-7 -4 -4 -10z"/>
<path d="M60747 21010 c-3 -11 -1 -23 4 -26 5 -3 9 6 9 20 0 31 -6 34 -13 6z"/>
<path d="M60765 20950 c3 -5 8 -10 11 -10 2 0 4 5 4 10 0 6 -5 10 -11 10 -5 0
-7 -4 -4 -10z"/>
<path d="M60373 20875 c0 -27 2 -38 4 -22 2 15 2 37 0 50 -2 12 -4 0 -4 -28z"/>
<path d="M60765 20860 c-3 -5 -1 -10 4 -10 6 0 11 5 11 10 0 6 -2 10 -4 10 -3
0 -8 -4 -11 -10z"/>
<path d="M60746 20822 c-2 -4 -1 -14 5 -22 7 -12 9 -10 9 8 0 23 -5 28 -14 14z"/>
<path d="M60695 20728 l-40 -43 43 40 c23 21 42 40 42 42 0 8 -9 0 -45 -39z"/>
<path d="M60390 20742 c0 -7 4 -12 9 -12 5 0 11 -8 13 -17 2 -12 6 -14 10 -7
4 6 -1 19 -12 29 -12 10 -20 13 -20 7z"/>
<path d="M60430 20680 c0 -5 5 -10 11 -10 5 0 7 5 4 10 -3 6 -8 10 -11 10 -2
0 -4 -4 -4 -10z"/>
<path d="M60625 20680 c-3 -5 1 -10 10 -10 9 0 13 5 10 10 -3 6 -8 10 -10 10
-2 0 -7 -4 -10 -10z"/>
<path d="M60465 20660 c-3 -5 1 -10 10 -10 9 0 13 5 10 10 -3 6 -8 10 -10 10
-2 0 -7 -4 -10 -10z"/>
<path d="M60585 20660 c-3 -5 1 -10 10 -10 9 0 13 5 10 10 -3 6 -8 10 -10 10
-2 0 -7 -4 -10 -10z"/>
<path d="M60518 20633 c12 -2 30 -2 40 0 9 3 -1 5 -23 4 -22 0 -30 -2 -17 -4z"/>
<path d="M10650 23459 c-857 -45 -1573 -419 -1990 -1039 -210 -313 -347 -678
-409 -1095 -42 -284 -42 -733 0 -1025 40 -278 85 -447 190 -715 266 -680 817
-1160 1564 -1360 368 -98 811 -125 1139 -69 471 81 915 311 1158 601 70 84
128 166 128 181 0 5 9 17 20 27 16 14 20 15 24 4 6 -18 26 -279 42 -557 4 -62
10 -115 15 -117 4 -3 270 -7 592 -10 431 -4 587 -3 592 6 9 14 10 5053 1 5068
-5 8 -173 10 -602 6 -328 -2 -599 -7 -603 -10 -5 -2 -11 -80 -14 -172 -17
-443 -21 -503 -29 -503 -10 0 -38 25 -38 34 0 11 -71 101 -141 178 -243 269
-636 470 -1066 543 -83 14 -358 37 -408 33 -11 0 -85 -4 -165 -9z m482 -1109
c508 -52 897 -309 1125 -740 130 -247 183 -473 183 -785 0 -189 -10 -275 -46
-425 -92 -379 -320 -702 -634 -898 -249 -155 -601 -233 -912 -203 -296 29
-467 83 -703 224 -128 76 -305 246 -397 380 -176 258 -261 557 -262 922 0 233
20 370 83 562 117 358 375 655 706 813 50 23 99 46 110 50 234 89 500 125 747
100z"/>
<path d="M67810 23459 c-182 -17 -397 -70 -526 -130 -224 -105 -426 -281 -569
-496 -26 -40 -51 -73 -55 -73 -12 0 -22 30 -31 103 -10 75 -22 160 -39 287 -7
47 -15 110 -19 140 l-6 55 -215 2 c-118 2 -378 0 -578 -5 l-363 -7 -2 -2518
c-2 -2511 -2 -2518 18 -2522 11 -3 292 -4 625 -2 l605 2 -3 1385 c-3 1228 -2
1398 12 1500 16 113 25 159 44 230 104 382 390 668 772 772 206 56 438 71 646
43 241 -32 397 -97 601 -251 47 -36 89 -61 93 -57 4 4 54 98 110 208 207 402
428 824 442 842 12 15 2 31 -47 75 -82 72 -199 149 -328 213 -349 172 -759
243 -1187 204z"/>
<path d="M23029 23439 c-1443 -74 -2449 -1157 -2449 -2637 0 -467 97 -896 291
-1282 266 -531 691 -925 1239 -1150 333 -136 687 -201 1095 -201 487 0 897 91
1287 287 647 325 1116 944 1276 1684 58 264 67 353 67 660 0 259 -6 342 -36
510 -22 124 -57 264 -99 390 -47 144 -68 196 -127 318 -349 728 -1010 1226
-1827 1377 -221 40 -481 56 -717 44z m481 -1182 c121 -31 162 -47 286 -109
340 -169 609 -519 719 -933 38 -142 48 -230 48 -415 0 -218 -21 -363 -78 -535
-123 -377 -353 -652 -675 -808 -269 -130 -629 -164 -948 -90 -442 102 -775
415 -928 872 -37 110 -43 136 -70 286 -23 126 -23 427 0 557 54 312 150 528
331 753 201 248 502 410 835 449 19 2 114 3 210 1 144 -3 192 -8 270 -28z"/>
<path d="M42315 23434 c-843 -97 -1505 -500 -1879 -1145 -25 -43 -127 -250
-148 -299 -6 -14 -14 -33 -19 -42 -5 -10 -9 -25 -9 -33 0 -8 -4 -23 -9 -33
-15 -30 -28 -66 -41 -112 -7 -25 -16 -54 -20 -65 -5 -11 -11 -33 -15 -50 -3
-16 -10 -48 -16 -70 -99 -414 -115 -959 -40 -1395 96 -559 314 -1002 666
-1356 390 -392 904 -618 1561 -684 168 -17 506 -8 644 18 432 82 801 258 1048
500 132 131 201 219 246 315 33 73 43 47 56 -148 9 -130 27 -416 32 -493 1
-18 5 -35 8 -37 3 -2 267 -5 588 -7 l582 -3 0 2530 0 2530 -592 -3 c-326 -2
-596 -5 -599 -7 -3 -2 -7 -30 -8 -62 -12 -370 -22 -583 -28 -605 -10 -36 -24
-37 -43 -2 -25 48 -125 176 -183 235 -271 276 -685 470 -1120 524 -151 19
-495 18 -662 -1z m780 -1089 c324 -57 572 -187 784 -411 150 -157 293 -406
341 -589 5 -16 15 -55 23 -85 34 -131 57 -303 57 -435 0 -132 -23 -304 -57
-435 -8 -30 -18 -68 -23 -85 -4 -16 -15 -50 -25 -75 -166 -431 -463 -730 -860
-865 -83 -29 -105 -34 -245 -61 -116 -23 -431 -23 -550 -1 -352 66 -622 208
-839 443 -177 192 -292 424 -356 719 -19 86 -35 254 -35 365 0 636 292 1135
811 1387 102 50 157 69 284 102 59 15 212 40 275 45 94 6 331 -4 415 -19z"/>
<path d="M56810 23403 c-244 -37 -343 -60 -490 -113 -116 -43 -287 -127 -395
-195 -84 -54 -285 -200 -330 -242 -163 -148 -214 -193 -218 -193 -11 0 -19 39
-28 130 -5 52 -13 136 -18 185 -5 50 -15 146 -22 215 -6 69 -15 133 -18 142
-5 15 -52 17 -559 20 l-552 3 0 -2528 0 -2528 617 -2 618 -2 -3 1340 c-3 1396
-3 1402 38 1598 18 89 80 258 132 356 141 273 395 507 663 611 230 90 559 107
815 41 360 -91 658 -375 779 -741 32 -98 38 -120 50 -180 6 -30 16 -80 23
-110 10 -43 13 -368 14 -1485 l0 -1430 624 0 624 0 -2 1370 c-2 1305 -8 1619
-33 1732 -5 23 -9 56 -9 72 0 17 -4 50 -10 73 -5 24 -15 70 -21 103 -11 53
-17 80 -45 185 -112 428 -359 834 -669 1098 -303 259 -656 413 -1069 468 -99
13 -437 18 -506 7z"/>
</g>
</svg>
