<svg id="svg" version="1.1" xmlns="http://www.w3.org/2000/svg" xmlns:xlink="http://www.w3.org/1999/xlink" width="400" height="115.72114027660174" viewBox="0, 0, 400,115.72114027660174"><g id="svgg"><path id="path0" d="M44.917 34.843 C 43.049 35.242,42.509 35.387,41.667 35.712 C 31.017 39.818,28.012 53.838,36.057 61.882 C 44.493 70.318,58.903 67.082,62.628 55.917 C 63.340 53.784,63.417 53.274,63.417 50.667 C 63.417 48.060,63.340 47.550,62.628 45.417 C 62.240 44.253,61.312 42.308,60.998 42.000 C 60.952 41.954,60.701 41.589,60.442 41.189 C 58.899 38.811,55.705 36.488,52.583 35.474 C 50.288 34.729,46.794 34.441,44.917 34.843 M237.375 39.107 L 237.000 39.190 237.000 55.428 L 237.000 71.667 240.083 71.667 L 243.167 71.667 243.167 66.917 L 243.167 62.167 248.458 62.167 C 254.472 62.167,255.630 62.038,257.623 61.149 C 258.012 60.975,258.373 60.833,258.426 60.833 C 259.022 60.833,262.039 57.997,262.681 56.833 C 266.573 49.786,263.342 41.539,255.883 39.481 C 254.625 39.133,238.709 38.812,237.375 39.107 M315.917 42.536 C 315.183 42.619,314.340 42.723,314.042 42.768 L 313.500 42.848 313.500 45.758 L 313.500 48.667 311.417 48.667 L 309.333 48.667 309.333 49.167 C 309.333 49.779,309.339 49.778,308.258 49.185 C 304.993 47.394,300.423 47.829,298.212 50.142 C 297.429 50.961,297.392 50.940,297.195 49.558 L 297.080 48.750 294.290 48.704 L 291.500 48.659 291.500 60.163 L 291.500 71.667 294.500 71.667 L 297.500 71.667 297.501 65.125 C 297.502 58.623,297.553 57.911,298.105 56.702 C 299.383 53.903,303.616 53.028,306.535 54.959 C 307.306 55.470,307.228 55.540,308.356 53.333 L 309.250 51.583 309.299 52.708 L 309.349 53.833 311.424 53.833 L 313.500 53.833 313.500 59.406 C 313.500 65.353,313.598 66.309,314.377 67.977 C 315.322 70.000,316.968 71.273,319.356 71.826 C 321.092 72.229,325.858 71.708,326.523 71.044 C 326.643 70.923,325.300 66.302,325.062 66.017 C 325.031 65.981,324.516 66.112,323.916 66.309 C 322.258 66.853,321.165 66.731,320.234 65.896 C 319.435 65.179,319.420 65.062,319.363 59.292 L 319.309 53.833 322.576 53.833 L 325.842 53.833 325.796 51.292 L 325.750 48.750 322.625 48.705 L 319.500 48.659 319.500 45.496 L 319.500 42.333 318.375 42.359 C 317.756 42.373,316.650 42.453,315.917 42.536 M253.590 45.259 C 258.840 46.626,259.660 53.341,254.874 55.765 L 253.917 56.250 248.542 56.298 L 243.167 56.346 243.167 50.673 L 243.167 45.000 247.882 45.000 C 251.605 45.000,252.806 45.054,253.590 45.259 M362.500 48.095 C 353.942 49.587,349.863 58.110,353.797 66.281 C 356.872 72.669,367.218 74.492,373.734 69.793 C 375.329 68.643,375.350 68.762,373.197 66.675 L 371.314 64.848 370.532 65.397 C 366.216 68.429,359.612 66.987,358.604 62.792 L 358.494 62.333 367.392 62.333 L 376.290 62.333 376.393 61.708 C 376.803 59.226,376.010 55.045,374.713 52.853 C 372.658 49.381,367.237 47.269,362.500 48.095 M272.667 48.360 C 270.624 48.917,269.264 49.543,267.871 50.569 C 262.400 54.596,262.381 65.733,267.837 70.037 C 270.818 72.388,276.011 73.088,279.540 71.612 C 280.756 71.104,282.800 69.443,282.850 68.924 C 282.900 68.401,283.136 69.739,283.150 70.625 L 283.167 71.667 285.917 71.667 L 288.667 71.667 288.667 60.250 L 288.667 48.833 285.917 48.833 L 283.167 48.833 283.157 49.458 C 283.152 49.802,283.096 50.363,283.032 50.704 L 282.917 51.324 282.072 50.508 C 280.013 48.520,275.695 47.534,272.667 48.360 M387.833 48.455 C 386.869 48.791,385.890 49.462,385.118 50.317 C 384.430 51.078,384.463 51.110,384.249 49.458 L 384.146 48.667 381.406 48.667 L 378.667 48.667 378.667 60.167 L 378.667 71.667 381.568 71.667 L 384.469 71.667 384.528 64.792 L 384.587 57.917 385.139 56.784 C 386.515 53.959,390.305 53.027,393.233 54.792 C 394.413 55.503,394.202 55.686,395.788 52.562 C 396.864 50.445,396.896 50.345,396.617 50.037 C 395.198 48.470,390.314 47.590,387.833 48.455 M338.733 48.505 C 337.361 48.777,335.251 49.908,333.917 51.086 L 333.417 51.528 333.301 50.889 C 333.238 50.538,333.182 49.894,333.176 49.458 L 333.167 48.667 330.500 48.667 L 327.833 48.667 327.833 60.167 L 327.833 71.667 330.667 71.667 L 333.500 71.667 333.500 66.095 C 333.500 58.629,333.721 57.289,335.239 55.557 C 337.670 52.783,342.423 53.226,343.957 56.369 C 344.647 57.783,344.667 58.026,344.667 64.942 L 344.667 71.667 347.667 71.667 L 350.667 71.667 350.667 64.875 C 350.667 56.148,350.516 55.214,348.650 52.332 C 346.678 49.287,342.644 47.730,338.733 48.505 M366.362 53.354 C 368.341 53.773,369.556 54.631,370.251 56.101 C 370.970 57.620,371.451 57.500,364.667 57.500 C 360.649 57.500,358.667 57.443,358.667 57.328 C 358.667 57.233,358.847 56.802,359.068 56.369 C 360.262 54.035,363.416 52.731,366.362 53.354 M278.226 53.749 C 286.084 56.133,283.062 68.582,275.031 66.909 C 271.510 66.175,269.754 63.958,269.757 60.250 C 269.759 57.810,271.065 54.833,272.134 54.833 C 272.228 54.833,272.331 54.777,272.361 54.708 C 272.763 53.803,276.429 53.204,278.226 53.749 " stroke="none" fill="#fc0404" fill-rule="evenodd"></path><path id="path1" d="" stroke="none" fill="#040404" fill-rule="evenodd"></path><path id="path2" d="M44.250 18.165 C 43.278 18.302,42.203 18.499,40.667 18.823 C 39.468 19.075,37.582 19.733,35.333 20.682 C 30.883 22.562,26.287 26.129,23.112 30.167 C 22.499 30.946,21.916 31.682,21.815 31.803 C 20.279 33.648,17.675 39.427,16.995 42.500 C 16.883 43.004,16.726 43.634,16.646 43.900 C 16.296 45.060,16.105 45.000,20.135 45.000 L 23.770 45.000 23.984 44.125 C 24.369 42.547,24.797 41.329,25.581 39.583 C 25.972 38.713,27.588 35.901,27.832 35.667 C 27.880 35.621,28.245 35.145,28.643 34.610 C 29.269 33.769,31.150 31.841,32.500 30.660 C 34.749 28.690,39.272 26.447,42.500 25.701 C 45.005 25.121,45.376 25.084,48.500 25.095 C 51.680 25.107,52.552 25.209,54.917 25.848 C 55.283 25.946,55.791 26.067,56.044 26.116 C 56.297 26.165,56.545 26.271,56.595 26.353 C 56.645 26.434,56.817 26.500,56.978 26.500 C 57.537 26.500,62.812 29.262,63.333 29.828 C 63.379 29.878,63.704 30.133,64.055 30.395 C 65.146 31.208,67.411 33.525,68.394 34.833 C 68.911 35.521,69.394 36.158,69.468 36.250 C 69.541 36.342,69.822 36.810,70.092 37.291 L 70.583 38.166 74.458 38.166 C 78.038 38.167,78.333 38.144,78.332 37.875 C 78.330 37.170,75.113 31.503,74.336 30.833 C 74.283 30.787,73.995 30.412,73.697 30.000 C 72.960 28.980,69.975 25.981,68.840 25.119 C 68.332 24.733,67.879 24.376,67.833 24.325 C 66.857 23.240,61.784 20.620,58.521 19.513 C 54.772 18.243,48.144 17.617,44.250 18.165 M104.583 38.494 C 93.443 39.776,87.026 50.424,90.618 61.667 C 91.020 62.925,92.171 65.349,92.566 65.768 C 92.667 65.875,92.900 66.177,93.083 66.439 C 96.921 71.919,107.352 74.418,113.917 71.429 C 114.192 71.304,114.810 71.034,115.292 70.830 C 115.773 70.626,116.167 70.393,116.167 70.313 C 116.167 70.232,116.246 70.167,116.342 70.167 C 116.846 70.167,119.818 67.771,119.603 67.538 C 118.309 66.141,115.362 63.333,115.189 63.333 C 115.061 63.333,114.834 63.469,114.686 63.635 C 112.232 66.387,105.926 67.274,101.906 65.433 C 93.966 61.798,94.213 48.990,102.291 45.478 C 106.206 43.775,112.042 44.607,114.353 47.198 C 114.827 47.729,115.155 47.539,117.181 45.556 C 119.429 43.355,119.348 43.509,118.625 42.818 C 116.664 40.940,113.970 39.556,110.583 38.687 C 109.659 38.450,105.993 38.332,104.583 38.494 M202.667 55.417 L 202.667 71.833 205.583 71.833 L 208.500 71.833 208.500 65.614 C 208.500 58.970,208.544 58.535,209.383 56.843 C 211.167 53.247,216.526 52.834,218.246 56.159 C 218.960 57.540,218.996 57.966,218.998 65.042 L 219.000 71.833 222.000 71.833 L 225.000 71.833 225.000 64.542 C 225.000 56.001,224.852 54.814,223.493 52.413 C 220.894 47.823,213.459 46.835,209.405 50.540 L 208.500 51.367 208.500 45.183 L 208.500 39.000 205.583 39.000 L 202.667 39.000 202.667 55.417 M166.500 45.083 C 166.500 48.337,166.460 51.000,166.411 51.000 C 166.362 51.000,166.059 50.737,165.738 50.416 C 163.431 48.109,158.274 47.409,154.333 48.867 C 153.645 49.122,151.953 49.994,151.833 50.155 C 151.787 50.217,151.463 50.483,151.113 50.746 C 150.763 51.009,150.243 51.568,149.958 51.987 C 149.672 52.407,149.396 52.788,149.343 52.833 C 147.173 54.725,146.764 62.302,148.626 66.120 C 149.974 68.885,152.580 71.112,155.292 71.816 C 155.681 71.917,156.290 72.075,156.644 72.167 C 159.663 72.947,163.883 71.949,165.802 70.000 L 166.628 69.161 166.743 70.122 C 166.969 72.013,166.652 71.833,169.768 71.833 L 172.500 71.833 172.500 55.500 L 172.500 39.167 169.500 39.167 L 166.500 39.167 166.500 45.083 M129.667 48.103 C 128.202 48.232,125.805 49.019,124.808 49.699 C 124.564 49.864,124.286 50.000,124.190 50.000 C 123.889 50.000,121.575 52.389,121.324 52.958 C 121.193 53.256,121.038 53.500,120.980 53.500 C 120.843 53.500,120.159 55.083,119.972 55.833 C 119.165 59.070,119.169 61.368,119.988 64.750 C 121.759 72.064,132.970 75.188,137.973 69.761 L 138.637 69.039 138.777 70.395 L 138.917 71.750 141.708 71.796 L 144.500 71.841 144.500 60.254 L 144.500 48.667 141.688 48.667 L 138.875 48.667 138.771 49.188 C 138.714 49.474,138.667 50.065,138.667 50.501 L 138.667 51.294 137.875 50.505 C 136.000 48.636,133.133 47.797,129.667 48.103 M184.530 48.420 C 177.289 50.186,173.560 57.542,176.159 64.934 C 179.031 73.108,191.349 75.107,196.841 68.291 C 202.130 61.728,199.594 51.966,191.792 48.857 C 190.086 48.177,186.429 47.957,184.530 48.420 M133.591 53.728 C 140.952 55.688,139.596 66.996,132.000 66.996 C 126.664 66.996,123.679 61.202,126.511 56.340 C 127.723 54.259,131.019 53.043,133.591 53.728 M160.977 53.829 C 168.030 55.166,167.782 65.661,160.674 66.666 C 155.792 67.356,152.323 62.990,153.789 58.000 C 154.691 54.931,157.671 53.202,160.977 53.829 M189.452 54.035 C 191.483 54.911,192.651 56.319,193.266 58.633 C 195.205 65.940,185.166 70.248,182.101 63.425 C 179.668 58.008,184.463 51.883,189.452 54.035 M16.500 56.022 C 16.500 56.218,16.581 56.687,16.680 57.064 C 16.779 57.441,16.925 58.012,17.004 58.333 C 17.590 60.698,19.459 65.457,19.873 65.639 C 19.943 65.669,20.000 65.757,20.000 65.833 C 20.000 65.983,21.336 68.364,21.496 68.500 C 21.550 68.546,21.940 69.071,22.362 69.667 C 25.589 74.222,31.005 78.414,36.333 80.480 C 37.112 80.783,38.012 81.135,38.333 81.263 C 43.535 83.346,52.275 83.335,58.613 81.236 C 61.423 80.306,66.907 77.492,67.500 76.676 C 67.546 76.613,67.958 76.308,68.417 75.998 C 69.506 75.261,73.285 71.484,74.002 70.417 C 74.310 69.958,74.613 69.546,74.676 69.500 C 75.276 69.064,78.333 63.494,78.333 62.836 C 78.333 62.509,78.234 62.500,74.430 62.500 L 70.526 62.500 69.932 63.458 C 67.047 68.113,62.404 71.976,57.500 73.804 C 55.512 74.545,54.869 74.706,51.431 75.323 C 48.671 75.818,44.151 75.367,40.583 74.242 C 38.799 73.679,34.913 71.734,34.196 71.045 C 34.075 70.929,33.921 70.833,33.853 70.833 C 33.785 70.833,33.583 70.702,33.405 70.542 C 33.226 70.381,32.723 69.963,32.288 69.612 C 28.538 66.592,25.575 61.985,24.148 56.958 L 23.782 55.667 20.141 55.667 C 16.535 55.667,16.500 55.670,16.500 56.022 " stroke="none" fill="#000000" fill-rule="evenodd"></path><path id="path3" d="" stroke="none" fill="#440404" fill-rule="evenodd"></path></g></svg>